<svg width="754" height="251" viewBox="0 0 754 251" fill="none" xmlns="http://www.w3.org/2000/svg">
<path d="M193.96 51.68C193.96 57.28 193.12 62.88 191.44 68.48C189.92 74 187.32 79.4 183.64 84.68C180.12 89.72 175.48 94.44 169.72 98.84C164.04 103.24 157.24 106.84 149.32 109.64C148.44 113.32 147.28 116.84 145.84 120.2C144.48 123.48 142.8 126.6 140.8 129.56C138.8 132.52 136.64 135.28 134.32 137.84C132 140.4 129.44 142.72 126.64 144.8C123.92 146.88 121.04 148.72 118 150.32C115.04 151.92 111.88 153.28 108.52 154.4C102.04 156.64 95.2 157.76 88 157.76C83.12 157.76 78.84 156.92 75.16 155.24C71.48 153.72 68.84 151 67.24 147.08C65.64 147.72 64.08 148.32 62.56 148.88C61.12 149.44 59.72 149.96 58.36 150.44C55.56 151.4 52.68 152.24 49.72 152.96C48.2 153.28 46.64 153.6 45.04 153.92C43.52 154.16 41.92 154.36 40.24 154.52C38.56 154.68 36.76 154.8 34.84 154.88C32.92 154.96 30.92 155 28.84 155C24.84 155 21.04 154.2 17.44 152.6C14.08 151.08 11.12 148.92 8.56 146.12C6.08 143.4 4.2 140.32 2.92 136.88C1.56 133.28 0.88 129.68 0.88 126.08C0.88 122.32 1.84 118.32 3.76 114.08C5.68 109.92 8.4 106 11.92 102.32C15.44 98.8 19.64 95.84 24.52 93.44C29.56 91.12 34.92 89.96 40.6 89.96C43.72 89.96 46.6 90.36 49.24 91.16C50.6 91.56 51.88 92.04 53.08 92.6C54.28 93.16 55.4 93.84 56.44 94.64C58.44 96.16 60.04 97.96 61.24 100.04C62.44 102.12 63.04 104.48 63.04 107.12C63.04 110.64 62.24 114.08 60.64 117.44C59.12 120.56 57 123.36 54.28 125.84C51.48 128.24 48.48 130.08 45.28 131.36C41.92 132.72 38.56 133.4 35.2 133.4C32.32 133.4 29.76 132.6 27.52 131C25.36 129.48 24.28 127.16 24.28 124.04C24.28 122.2 24.72 120.48 25.6 118.88C26 118.08 26.48 117.36 27.04 116.72C27.68 116.08 28.32 115.44 28.96 114.8C30.32 113.52 31.84 112.48 33.52 111.68C35.36 110.8 37 110.12 38.44 109.64C38.44 109.8 38.6 110.04 38.92 110.36C37.56 110.68 36.04 111.36 34.36 112.4C33.56 112.8 32.8 113.28 32.08 113.84C31.44 114.4 30.8 115 30.16 115.64C28.8 116.84 27.72 118.16 26.92 119.6C26.12 120.96 25.72 122.44 25.72 124.04C25.72 126.68 26.6 128.6 28.36 129.8C30.12 130.92 32.08 131.48 34.24 131.48C37.52 131.48 40.68 130.72 43.72 129.2C46.76 127.76 49.56 125.84 52.12 123.44C54.44 121.2 56.4 118.56 58 115.52C59.44 112.64 60.16 109.76 60.16 106.88C60.16 104.16 59.64 101.88 58.6 100.04C57.48 98.12 56.04 96.56 54.28 95.36C52.36 94.08 50.32 93.16 48.16 92.6C47.04 92.36 45.84 92.16 44.56 92C43.36 91.84 42.08 91.76 40.72 91.76C34.96 91.76 29.8 92.88 25.24 95.12C20.52 97.44 16.52 100.24 13.24 103.52C9.8 106.96 7.2 110.68 5.44 114.68C3.6 118.76 2.68 122.56 2.68 126.08C2.68 129.68 3.32 133.04 4.6 136.16C5.72 139.2 7.48 142.04 9.88 144.68C11 145.88 12.2 146.96 13.48 147.92C14.84 148.88 16.32 149.76 17.92 150.56C20.96 152.08 24.44 152.84 28.36 152.84C35.4 152.84 42 152.08 48.16 150.56C54.56 148.96 60.52 146.68 66.04 143.72C65.64 141.96 65.44 140.32 65.44 138.8C65.44 135.92 66.08 133.08 67.36 130.28C68 128.92 68.76 127.6 69.64 126.32C70.52 124.96 71.52 123.72 72.64 122.6C74.88 120.36 77.52 118.52 80.56 117.08C83.52 115.64 86.72 114.92 90.16 114.92C91.76 114.92 93.48 115.16 95.32 115.64L97.72 112.76C96.44 112.36 95.2 111.8 94 111.08C92.8 110.36 91.64 109.56 90.52 108.68C88.2 106.84 86.24 104.72 84.64 102.32C82.88 99.76 81.56 97.04 80.68 94.16C79.72 91.28 79.24 88.32 79.24 85.28C79.24 79.04 80.12 73.4 81.88 68.36C82.76 65.8 83.76 63.36 84.88 61.04C86.08 58.72 87.44 56.52 88.96 54.44C90.4 52.36 92 50.4 93.76 48.56C95.52 46.72 97.44 45 99.52 43.4C103.68 40.2 108.04 37.56 112.6 35.48C114.92 34.44 117.24 33.52 119.56 32.72C121.96 31.92 124.44 31.24 127 30.68C131.72 29.64 136.64 29.12 141.76 29.12C145.92 29.12 149.92 29.68 153.76 30.8C157.28 31.84 160.2 33.64 162.52 36.2C163.88 35.24 165.16 34.36 166.36 33.56C167.64 32.76 168.84 32.04 169.96 31.4C171.08 30.76 172.16 30.2 173.2 29.72C174.32 29.16 175.4 28.68 176.44 28.28L176.92 29C176.04 29.4 175.08 29.84 174.04 30.32C173.08 30.8 172.04 31.36 170.92 32C168.76 33.36 166.36 35.16 163.72 37.4C165.48 39.56 166.8 41.92 167.68 44.48C168.48 46.88 168.88 49.4 168.88 52.04C168.88 55.88 168.12 59.68 166.6 63.44C165.8 65.28 164.88 67.12 163.84 68.96C162.88 70.72 161.72 72.44 160.36 74.12C157.8 77.48 154.8 80.48 151.36 83.12C147.84 85.76 144.2 87.8 140.44 89.24C141.88 89.88 143.08 90.8 144.04 92C144.6 92.64 145.08 93.32 145.48 94.04C145.96 94.76 146.4 95.56 146.8 96.44C147.52 97.96 148.16 99.76 148.72 101.84C148.88 102.8 149 103.76 149.08 104.72C149.24 105.68 149.32 106.68 149.32 107.72C156.84 104.6 163.2 100.84 168.4 96.44C173.6 92.2 177.96 87.52 181.48 82.4C184.92 77.28 187.4 72.04 188.92 66.68C190.52 61.16 191.32 55.88 191.32 50.84C191.32 43.16 189.88 36.32 187 30.32C184.2 24.48 180.28 19.4 175.24 15.08C170.28 11 164.6 7.88 158.2 5.71999C151.8 3.55999 145.04 2.48 137.92 2.48C130.32 2.48 123.04 3.2 116.08 4.64C109.44 5.91999 103.08 7.79999 97 10.28C94.04 11.4 91.24 12.64 88.6 14C85.96 15.36 83.44 16.84 81.04 18.44C76.32 21.48 72.28 24.68 68.92 28.04C65.56 31.4 63 34.72 61.24 38C59.4 41.36 58.44 44.52 58.36 47.48C58.36 44.44 59.28 41.16 61.12 37.64C62 35.88 63.08 34.16 64.36 32.48C65.64 30.8 67.08 29.08 68.68 27.32C70.28 25.56 72.08 23.88 74.08 22.28C76.16 20.6 78.36 18.96 80.68 17.36C83 15.76 85.44 14.28 88 12.92C90.64 11.48 93.44 10.12 96.4 8.83999C102.24 6.44 108.6 4.52 115.48 3.08C122.28 1.64 129.48 0.919995 137.08 0.919995C145 0.919995 152.32 2.04 159.04 4.27999C166.08 6.59999 172.12 9.87999 177.16 14.12C182.36 18.44 186.44 23.76 189.4 30.08C192.44 36.4 193.96 43.6 193.96 51.68ZM165.28 48.56C165.28 44.88 164.2 41.72 162.04 39.08C160.52 40.44 158.92 42.04 157.24 43.88C155.64 45.64 153.92 47.56 152.08 49.64C150.32 51.72 148.56 53.88 146.8 56.12C145.04 58.36 143.24 60.68 141.4 63.08C137.8 67.88 134.2 72.8 130.6 77.84C128.84 80.32 127.12 82.76 125.44 85.16C123.84 87.48 122.24 89.8 120.64 92.12C119.04 94.36 117.56 96.48 116.2 98.48C114.84 100.48 113.52 102.4 112.24 104.24C109.68 107.84 107.64 110.6 106.12 112.52C107 112.76 107.96 113 109 113.24C110.04 113.4 111.12 113.56 112.24 113.72C114.48 113.96 116.88 114.08 119.44 114.08C123.6 114.08 127.92 113.72 132.4 113C134.64 112.6 136.8 112.16 138.88 111.68C141.04 111.12 143.16 110.44 145.24 109.64C145.64 107.64 145.84 105.84 145.84 104.24C145.84 101.36 145.28 98.56 144.16 95.84C143.12 93.2 141.4 91.24 139 89.96C136.52 91.08 133.96 91.96 131.32 92.6C128.76 93.08 126.84 93.32 125.56 93.32C124.2 93.16 123.52 92.64 123.52 91.76C123.52 90.96 124.2 90.2 125.56 89.48C126.2 89.08 126.88 88.8 127.6 88.64C128.32 88.4 129.08 88.2 129.88 88.04C131.24 87.72 132.68 87.56 134.2 87.56C136.04 87.56 137.56 87.8 138.76 88.28C142.04 86.28 145.32 83.64 148.6 80.36C150.2 78.76 151.68 77.16 153.04 75.56C154.48 73.88 155.84 72.12 157.12 70.28C158.32 68.44 159.4 66.6 160.36 64.76C161.32 62.92 162.2 61.08 163 59.24C164.52 55.64 165.28 52.08 165.28 48.56ZM161.08 37.64C159.08 35.24 156.4 33.48 153.04 32.36C149.84 31.32 146.2 30.8 142.12 30.8C140.04 30.8 137.92 30.92 135.76 31.16C133.6 31.4 131.36 31.72 129.04 32.12C126.72 32.52 124.4 33.08 122.08 33.8C119.84 34.52 117.56 35.32 115.24 36.2C110.76 37.96 106.36 40.32 102.04 43.28C99.96 44.64 98 46.16 96.16 47.84C94.32 49.52 92.6 51.36 91 53.36C87.88 57.36 85.36 61.84 83.44 66.8C81.52 71.84 80.56 77.48 80.56 83.72C80.56 84.68 80.6 85.72 80.68 86.84C80.84 87.96 81.08 89.16 81.4 90.44C81.88 93.08 82.84 95.64 84.28 98.12C85.56 100.68 87.48 103.08 90.04 105.32C92.68 107.56 95.88 109.32 99.64 110.6C101 109 102.36 107.32 103.72 105.56C105.08 103.72 106.52 101.8 108.04 99.8C111 95.88 114.12 91.68 117.4 87.2C119 85.04 120.64 82.88 122.32 80.72C124 78.48 125.72 76.2 127.48 73.88C129.24 71.64 131 69.44 132.76 67.28C134.52 65.04 136.32 62.8 138.16 60.56C141.76 56.24 145.52 52.12 149.44 48.2C153.28 44.28 157.16 40.76 161.08 37.64ZM136.84 89.48C135.96 89.24 134.88 89.12 133.6 89.12C132.48 89.12 131.28 89.24 130 89.48C128.88 89.56 127.72 89.88 126.52 90.44C125.64 90.6 125.2 90.92 125.2 91.4C125.2 91.56 125.64 91.72 126.52 91.88C128.76 91.88 130.72 91.64 132.4 91.16C133.28 90.92 134.08 90.68 134.8 90.44C135.52 90.12 136.2 89.8 136.84 89.48ZM145 111.56C141.16 112.92 136.92 114.08 132.28 115.04C129.96 115.44 127.6 115.76 125.2 116C122.88 116.24 120.52 116.36 118.12 116.36C115.72 116.36 113.4 116.24 111.16 116C110.04 115.84 108.92 115.68 107.8 115.52C106.68 115.28 105.56 115 104.44 114.68L101.32 118.52C103 119.56 104.16 120.8 104.8 122.24C105.44 123.92 105.76 125.56 105.76 127.16C105.76 129.72 105.16 132 103.96 134C102.92 135.92 101.44 137.72 99.52 139.4C98.64 140.2 97.64 140.92 96.52 141.56C95.48 142.12 94.4 142.64 93.28 143.12C92.16 143.52 91 143.88 89.8 144.2C88.68 144.44 87.56 144.6 86.44 144.68C88.44 144.04 90.4 143.16 92.32 142.04C94.24 140.92 96 139.52 97.6 137.84C99.12 136.32 100.44 134.52 101.56 132.44C102.52 130.44 103 128.28 103 125.96C103 124.84 102.76 123.72 102.28 122.6C101.96 121.56 101.24 120.68 100.12 119.96C98.04 122.36 95.84 124.76 93.52 127.16C91.2 129.56 88.72 131.92 86.08 134.24C83.52 136.56 80.8 138.72 77.92 140.72C75.04 142.72 72.04 144.6 68.92 146.36C69.96 149.24 72.24 151.48 75.76 153.08C79.12 154.52 83.08 155.24 87.64 155.24C91.48 155.24 95.36 154.6 99.28 153.32C103.52 151.96 107.6 150.24 111.52 148.16C113.52 147.04 115.48 145.88 117.4 144.68C119.4 143.4 121.32 142.04 123.16 140.6C127 137.64 130.4 134.56 133.36 131.36C134.88 129.76 136.24 128.16 137.44 126.56C138.72 124.88 139.88 123.16 140.92 121.4C141.96 119.72 142.8 118.08 143.44 116.48C144.16 114.8 144.68 113.16 145 111.56ZM94.12 117.08C92.68 116.6 91.2 116.36 89.68 116.36C86.64 116.36 83.76 117.08 81.04 118.52C78.32 119.88 75.96 121.68 73.96 123.92C71.96 126.08 70.36 128.6 69.16 131.48C67.96 134.28 67.36 137.04 67.36 139.76C67.36 140.96 67.48 141.96 67.72 142.76C70.6 141.24 73.32 139.36 75.88 137.12C77.16 136.08 78.36 135 79.48 133.88C80.68 132.76 81.84 131.64 82.96 130.52C84.08 129.4 85.12 128.28 86.08 127.16C87.12 125.96 88.12 124.76 89.08 123.56C90.84 121.32 92.52 119.16 94.12 117.08ZM229.337 117.56C228.457 118.76 227.497 120.04 226.457 121.4C225.417 122.68 224.297 124 223.097 125.36C221.977 126.72 220.737 128.12 219.377 129.56C218.097 131 216.737 132.4 215.297 133.76C212.497 136.56 209.497 139.2 206.297 141.68C204.697 142.96 203.097 144.16 201.497 145.28C199.897 146.4 198.297 147.48 196.697 148.52C193.577 150.44 190.337 152.04 186.977 153.32C183.617 154.44 180.457 155 177.497 155C174.537 155 172.257 154.08 170.657 152.24C169.137 150.48 168.377 148.4 168.377 146C168.377 142.56 169.217 138.84 170.897 134.84C172.577 130.92 174.777 127 177.497 123.08C180.297 119.08 183.377 115.28 186.737 111.68C190.337 107.84 193.857 104.6 197.297 101.96C201.057 99.08 204.537 96.84 207.737 95.24C211.097 93.56 214.017 92.72 216.497 92.72C218.337 92.72 219.417 93.48 219.737 95C219.737 97.24 218.777 99.84 216.857 102.8C215.897 104.32 214.737 105.8 213.377 107.24C212.097 108.68 210.657 110.16 209.057 111.68C205.937 114.48 202.097 117.16 197.537 119.72C193.217 122.28 188.617 124.2 183.737 125.48C183.257 126.12 182.737 126.84 182.177 127.64C181.617 128.36 181.017 129.2 180.377 130.16C179.177 132 177.937 134.08 176.657 136.4C175.537 138.64 174.577 140.84 173.777 143C172.977 145.16 172.577 147.2 172.577 149.12C172.577 150.72 173.097 151.8 174.137 152.36C175.177 152.92 176.377 153.2 177.737 153.2C182.697 153.2 187.537 152 192.257 149.6C196.817 147.28 201.257 144.32 205.577 140.72C207.657 139.04 209.657 137.28 211.577 135.44C213.497 133.52 215.377 131.56 217.217 129.56C218.977 127.56 220.617 125.72 222.137 124.04C223.657 122.28 225.097 120.6 226.457 119C226.617 118.76 226.817 118.52 227.057 118.28C227.297 118.04 227.497 117.76 227.657 117.44C227.817 117.2 228.017 116.96 228.257 116.72C228.497 116.48 228.697 116.28 228.857 116.12L229.337 117.56ZM218.777 95.48C218.777 94.2 218.017 93.56 216.497 93.56C214.577 93.56 212.617 94.16 210.617 95.36C208.537 96.56 206.497 98.12 204.497 100.04C203.457 101 202.457 102.04 201.497 103.16C200.537 104.2 199.577 105.28 198.617 106.4C197.657 107.52 196.697 108.68 195.737 109.88C194.857 111 193.977 112.12 193.097 113.24C192.217 114.36 191.377 115.44 190.577 116.48C189.857 117.52 189.137 118.52 188.417 119.48C187.777 120.36 187.137 121.16 186.497 121.88C185.937 122.6 185.417 123.24 184.937 123.8C189.897 122.28 194.497 120.24 198.737 117.68C200.817 116.48 202.737 115.24 204.497 113.96C206.257 112.68 207.897 111.36 209.417 110C212.297 107.44 214.617 104.8 216.377 102.08C217.977 99.52 218.777 97.32 218.777 95.48ZM295.198 117.08C294.078 118.28 292.878 119.56 291.598 120.92C290.398 122.2 289.118 123.6 287.758 125.12C286.398 126.64 284.998 128.16 283.558 129.68C282.198 131.2 280.718 132.76 279.118 134.36C275.998 137.48 272.598 140.64 268.918 143.84C267.078 145.44 265.158 147 263.158 148.52C261.158 149.96 259.038 151.4 256.798 152.84C254.638 154.28 252.678 155 250.918 155C249.238 155 247.878 154.4 246.838 153.2C245.798 152.16 245.278 150.44 245.278 148.04C245.518 146.52 246.078 144.8 246.958 142.88C247.358 142 247.758 141.08 248.158 140.12C248.638 139.16 249.198 138.12 249.838 137C250.638 135.48 251.518 133.96 252.478 132.44C253.518 130.84 254.598 129.24 255.718 127.64C256.838 126.04 257.998 124.44 259.198 122.84C260.398 121.16 261.598 119.52 262.798 117.92C263.918 116.32 264.998 114.72 266.038 113.12C267.158 111.52 268.238 109.92 269.278 108.32C271.118 105.28 272.478 102.36 273.358 99.56C273.598 98.84 273.718 98.16 273.718 97.52C273.718 96.64 273.438 95.96 272.878 95.48C272.398 95 271.718 94.76 270.838 94.76C269.958 94.76 269.078 94.92 268.198 95.24C267.718 95.4 267.238 95.64 266.758 95.96C266.278 96.2 265.758 96.52 265.198 96.92C264.318 97.56 263.278 98.4 262.078 99.44C260.878 100.48 259.478 101.76 257.878 103.28C256.358 104.72 254.758 106.28 253.078 107.96C251.478 109.64 249.798 111.4 248.038 113.24C244.518 117 241.038 120.96 237.598 125.12C234.238 129.2 231.278 133.24 228.718 137.24L217.438 155H212.638L251.038 93.8H255.838L240.958 116.84C244.558 112.76 248.278 108.92 252.118 105.32C255.718 101.96 259.758 98.84 264.238 95.96C265.518 95.16 266.798 94.56 268.078 94.16C269.118 93.92 270.158 93.8 271.198 93.8C272.878 93.8 274.238 94.24 275.278 95.12C276.238 96 276.718 97 276.718 98.12C276.718 98.76 276.638 99.52 276.478 100.4C276.398 101.2 276.278 102.16 276.118 103.28C275.798 105.28 274.798 107.56 273.118 110.12C271.438 112.68 269.758 115.2 268.078 117.68C266.398 120.16 264.718 122.64 263.038 125.12C261.438 127.6 259.798 130.08 258.118 132.56C256.438 134.96 254.798 137.4 253.198 139.88C251.998 141.64 251.078 143.12 250.438 144.32C250.118 144.88 249.838 145.44 249.598 146C249.358 146.56 249.118 147.16 248.878 147.8C248.478 149 248.278 149.84 248.278 150.32C248.278 151.36 248.638 152.12 249.358 152.6C249.998 153 250.758 153.2 251.638 153.2C253.078 153.2 254.478 152.76 255.838 151.88C257.838 150.52 259.718 149.16 261.478 147.8C263.318 146.44 265.118 145.04 266.878 143.6C268.558 142.24 270.198 140.84 271.798 139.4C273.478 137.88 275.118 136.32 276.718 134.72C279.838 131.68 282.918 128.48 285.958 125.12C287.478 123.52 288.998 121.88 290.518 120.2C292.038 118.44 293.598 116.68 295.198 114.92V117.08ZM346.729 85.4H327.289L293.209 140.36C292.089 142.2 291.249 143.72 290.689 144.92C290.209 145.96 289.849 147.08 289.609 148.28C289.609 150.28 289.849 151.64 290.329 152.36C290.729 153 291.449 153.32 292.489 153.32C295.289 153.32 298.289 152.44 301.489 150.68C304.529 149.08 307.689 146.92 310.969 144.2C314.089 141.8 317.209 138.96 320.329 135.68C321.849 134.16 323.289 132.68 324.649 131.24C326.089 129.72 327.449 128.24 328.729 126.8C329.929 125.36 331.089 124 332.209 122.72C333.329 121.44 334.369 120.24 335.329 119.12C336.289 118 337.129 117.08 337.849 116.36C338.569 115.56 339.129 114.96 339.529 114.56L339.649 116.6C339.249 117 338.729 117.56 338.089 118.28C337.529 118.92 336.809 119.8 335.929 120.92C334.089 123.08 331.929 125.6 329.449 128.48C328.169 129.84 326.849 131.28 325.489 132.8C324.129 134.24 322.649 135.76 321.049 137.36C318.169 140.32 314.969 143.2 311.449 146C308.009 148.56 304.609 150.72 301.249 152.48C297.889 154.16 294.649 155 291.529 155C289.049 155 287.329 154.36 286.369 153.08C285.489 151.72 285.049 150.28 285.049 148.76C285.049 146.76 285.529 144.6 286.489 142.28C286.969 141.16 287.489 140.04 288.049 138.92C288.689 137.8 289.369 136.68 290.089 135.56L321.769 85.4H306.409V84.2H322.489L331.849 69.08H336.649L328.009 84.2H346.729V85.4ZM403.896 36.2L339.336 138.44C337.896 140.76 336.576 143.04 335.376 145.28C334.176 147.44 333.576 149.08 333.576 150.2C333.576 151.32 333.936 152.12 334.656 152.6C335.456 153 336.296 153.2 337.176 153.2C340.376 153.2 343.456 152.44 346.416 150.92C349.456 149.48 352.376 147.6 355.176 145.28C356.536 144.16 357.896 142.96 359.256 141.68C360.616 140.4 361.936 139.08 363.216 137.72C364.496 136.36 365.736 135.04 366.936 133.76C368.216 132.4 369.416 131.04 370.536 129.68C371.656 128.32 372.736 127.04 373.776 125.84C374.816 124.64 375.816 123.48 376.776 122.36C378.776 120.12 380.456 118.48 381.816 117.44L379.896 121.52C378.696 122.48 377.216 123.96 375.456 125.96C374.576 127 373.656 128.08 372.696 129.2C371.736 130.24 370.696 131.4 369.576 132.68C368.536 133.96 367.456 135.24 366.336 136.52C365.216 137.72 364.016 139 362.736 140.36C360.176 143 357.536 145.4 354.816 147.56C351.936 149.8 349.096 151.6 346.296 152.96C343.176 154.32 340.136 155 337.176 155C335.656 155 334.376 154.64 333.336 153.92C332.456 153.28 331.656 152.36 330.936 151.16C330.616 150.2 330.456 149.12 330.456 147.92C330.456 146.32 330.816 144.72 331.536 143.12C331.936 142.4 332.336 141.64 332.736 140.84C333.136 139.96 333.656 139.08 334.296 138.2L399.096 36.2H403.896ZM434.663 117.56C433.783 118.76 432.823 120.04 431.783 121.4C430.743 122.68 429.623 124 428.423 125.36C427.303 126.72 426.063 128.12 424.703 129.56C423.423 131 422.063 132.4 420.623 133.76C417.823 136.56 414.823 139.2 411.623 141.68C410.023 142.96 408.423 144.16 406.823 145.28C405.223 146.4 403.623 147.48 402.023 148.52C398.903 150.44 395.663 152.04 392.303 153.32C388.943 154.44 385.783 155 382.823 155C379.863 155 377.583 154.08 375.983 152.24C374.463 150.48 373.703 148.4 373.703 146C373.703 142.56 374.543 138.84 376.223 134.84C377.903 130.92 380.103 127 382.823 123.08C385.623 119.08 388.703 115.28 392.063 111.68C395.663 107.84 399.183 104.6 402.623 101.96C406.383 99.08 409.863 96.84 413.063 95.24C416.423 93.56 419.343 92.72 421.823 92.72C423.663 92.72 424.743 93.48 425.063 95C425.063 97.24 424.103 99.84 422.183 102.8C421.223 104.32 420.063 105.8 418.703 107.24C417.423 108.68 415.983 110.16 414.383 111.68C411.263 114.48 407.423 117.16 402.863 119.72C398.543 122.28 393.943 124.2 389.063 125.48C388.583 126.12 388.063 126.84 387.503 127.64C386.943 128.36 386.343 129.2 385.703 130.16C384.503 132 383.263 134.08 381.983 136.4C380.863 138.64 379.903 140.84 379.103 143C378.303 145.16 377.903 147.2 377.903 149.12C377.903 150.72 378.423 151.8 379.463 152.36C380.503 152.92 381.703 153.2 383.063 153.2C388.023 153.2 392.863 152 397.583 149.6C402.143 147.28 406.583 144.32 410.903 140.72C412.983 139.04 414.983 137.28 416.903 135.44C418.823 133.52 420.703 131.56 422.543 129.56C424.303 127.56 425.943 125.72 427.463 124.04C428.983 122.28 430.423 120.6 431.783 119C431.943 118.76 432.143 118.52 432.383 118.28C432.623 118.04 432.823 117.76 432.983 117.44C433.143 117.2 433.343 116.96 433.583 116.72C433.823 116.48 434.023 116.28 434.183 116.12L434.663 117.56ZM424.103 95.48C424.103 94.2 423.343 93.56 421.823 93.56C419.903 93.56 417.943 94.16 415.943 95.36C413.863 96.56 411.823 98.12 409.823 100.04C408.783 101 407.783 102.04 406.823 103.16C405.863 104.2 404.903 105.28 403.943 106.4C402.983 107.52 402.023 108.68 401.063 109.88C400.183 111 399.303 112.12 398.423 113.24C397.543 114.36 396.703 115.44 395.903 116.48C395.183 117.52 394.463 118.52 393.743 119.48C393.103 120.36 392.463 121.16 391.823 121.88C391.263 122.6 390.743 123.24 390.263 123.8C395.223 122.28 399.823 120.24 404.063 117.68C406.143 116.48 408.063 115.24 409.823 113.96C411.583 112.68 413.223 111.36 414.743 110C417.623 107.44 419.943 104.8 421.703 102.08C423.303 99.52 424.103 97.32 424.103 95.48ZM500.764 119C500.364 119.48 499.804 120.12 499.084 120.92C498.364 121.64 497.444 122.56 496.324 123.68C495.284 124.8 494.124 126 492.844 127.28C491.564 128.48 490.164 129.84 488.644 131.36C485.604 134.4 482.244 137.64 478.564 141.08C476.724 142.84 474.884 144.6 473.044 146.36C471.204 148.04 469.364 149.8 467.524 151.64L456.364 162.08C454.524 163.84 452.764 165.48 451.084 167C449.404 168.6 447.764 170.16 446.164 171.68C444.644 173.12 443.204 174.44 441.844 175.64C440.564 176.92 439.364 178.08 438.244 179.12C437.124 180.16 436.164 181.04 435.364 181.76C434.564 182.56 433.964 183.16 433.564 183.56C427.324 193.4 420.644 202.68 413.524 211.4C409.924 215.8 406.364 220.16 402.844 224.48C399.244 228.88 395.644 233.32 392.044 237.8C391.244 239.16 390.044 240.64 388.444 242.24C386.924 243.76 385.324 245.08 383.644 246.2C382.044 247.32 380.324 248.32 378.484 249.2C376.804 250 375.284 250.4 373.924 250.4C372.804 250.4 371.884 250.04 371.164 249.32C370.444 248.76 370.084 247.64 370.084 245.96C370.084 244.92 370.204 243.68 370.444 242.24C370.684 241.04 371.244 239.48 372.124 237.56C375.804 230.2 380.124 223.68 385.084 218C387.564 215.2 390.084 212.56 392.644 210.08C395.124 207.68 397.684 205.4 400.324 203.24C402.884 201.16 405.444 199.16 408.004 197.24C410.564 195.32 413.124 193.56 415.684 191.96C418.164 190.36 420.524 188.8 422.764 187.28C424.924 185.84 426.924 184.44 428.764 183.08L458.524 135.8C456.684 137.72 454.404 140 451.684 142.64C448.964 145.2 446.364 147.56 443.884 149.72C441.644 151.56 439.564 152.92 437.644 153.8C435.964 154.6 434.284 155 432.604 155C430.764 155 429.284 154.56 428.164 153.68C427.044 152.8 426.444 151.88 426.364 150.92C426.284 150.68 426.244 150.32 426.244 149.84C426.164 149.6 426.124 149.24 426.124 148.76C426.124 146.76 426.604 144.6 427.564 142.28C428.044 141.16 428.564 140.04 429.124 138.92C429.764 137.8 430.444 136.68 431.164 135.56L457.804 94.52H462.844L434.284 138.44C433.644 139.4 433.084 140.32 432.604 141.2C432.124 142.08 431.724 142.92 431.404 143.72C430.844 145.24 430.364 146.76 429.964 148.28C429.964 150.28 430.244 151.6 430.804 152.24C431.444 152.88 432.284 153.2 433.324 153.2C436.044 153.2 439.244 151.72 442.924 148.76C445.004 147.08 447.004 145.36 448.924 143.6C450.924 141.84 452.844 140.04 454.684 138.2C456.524 136.36 458.204 134.52 459.724 132.68C461.244 130.76 462.684 128.76 464.044 126.68L484.684 94.52H489.724L435.724 179.48C436.364 178.84 437.284 177.96 438.484 176.84C439.684 175.8 441.124 174.48 442.804 172.88C444.484 171.28 446.284 169.56 448.204 167.72C450.124 165.88 452.204 163.92 454.444 161.84C456.604 159.76 458.804 157.64 461.044 155.48C463.364 153.32 465.764 151.08 468.244 148.76C470.644 146.44 472.964 144.2 475.204 142.04C477.524 139.8 479.764 137.64 481.924 135.56C484.004 133.48 485.964 131.52 487.804 129.68C489.724 127.84 491.484 126.12 493.084 124.52C494.684 122.92 496.004 121.56 497.044 120.44C498.164 119.32 499.004 118.44 499.564 117.8L500.764 119ZM426.604 185.96C423.964 187.8 421.364 189.6 418.804 191.36C416.244 193.12 413.724 194.92 411.244 196.76C408.764 198.52 406.364 200.32 404.044 202.16C401.724 204.08 399.444 206.04 397.204 208.04C392.884 211.88 388.684 216.28 384.604 221.24C380.604 226.12 377.004 231.56 373.804 237.56C373.404 238.44 373.044 239.24 372.724 239.96C372.324 240.76 372.044 241.48 371.884 242.12C371.564 243.32 371.404 244.4 371.404 245.36C371.404 247.68 372.444 248.84 374.524 248.84C376.364 248.84 378.804 247.8 381.844 245.72C383.364 244.68 384.844 243.44 386.284 242C387.644 240.64 389.004 239.08 390.364 237.32C393.804 232.92 397.084 228.6 400.204 224.36C403.324 220.12 406.284 215.84 409.084 211.52C411.884 207.2 414.764 202.92 417.724 198.68C420.604 194.52 423.564 190.28 426.604 185.96Z" fill="white"/>
<path d="M467.48 204C467.133 204.373 466.773 204.747 466.4 205.12C466.053 205.493 465.667 205.893 465.24 206.32C464.44 207.12 463.587 207.933 462.68 208.76C462.227 209.187 461.76 209.6 461.28 210C460.827 210.4 460.347 210.813 459.84 211.24C459.36 211.64 458.88 212.027 458.4 212.4C457.92 212.773 457.427 213.147 456.92 213.52C455.8 214.32 454.733 214.947 453.72 215.4C452.76 215.8 451.933 216 451.24 216C450.547 216 450 215.8 449.6 215.4C449.2 215 449 214.4 449 213.6V213.44C449 212.533 449.187 211.4 449.56 210.04C449.747 209.4 449.973 208.747 450.24 208.08C450.533 207.387 450.893 206.667 451.32 205.92C451.613 205.387 451.933 204.867 452.28 204.36C452.653 203.853 453.067 203.347 453.52 202.84C454.4 201.8 455.32 200.853 456.28 200C457.267 199.093 458.253 198.307 459.24 197.64C459.747 197.293 460.213 196.987 460.64 196.72C461.093 196.453 461.533 196.213 461.96 196C462.173 195.893 462.4 195.8 462.64 195.72C462.88 195.613 463.107 195.533 463.32 195.48C463.8 195.347 464.227 195.28 464.6 195.28C465.24 195.28 465.747 195.467 466.12 195.84C466.307 196.027 466.4 196.333 466.4 196.76C466.4 197.08 466.36 197.373 466.28 197.64C466.2 197.933 466.12 198.133 466.04 198.24C465.907 198.453 465.76 198.627 465.6 198.76C465.44 198.893 465.293 199.013 465.16 199.12C464.867 199.28 464.627 199.36 464.44 199.36C464.04 199.36 463.84 199.173 463.84 198.8C463.84 198.587 463.933 198.373 464.12 198.16C464.28 197.947 464.547 197.707 464.92 197.44C465 197.387 465.12 197.333 465.28 197.28C465.387 197.253 465.507 197.173 465.64 197.04C465.773 196.907 465.84 196.733 465.84 196.52C465.84 196.307 465.773 196.133 465.64 196C465.48 195.733 465.107 195.6 464.52 195.6C464.173 195.6 463.76 195.667 463.28 195.8C463.067 195.853 462.853 195.933 462.64 196.04C462.427 196.147 462.227 196.267 462.04 196.4C461.533 196.747 461.053 197.107 460.6 197.48C460.173 197.827 459.747 198.187 459.32 198.56C458.893 198.933 458.493 199.333 458.12 199.76C457.747 200.16 457.387 200.573 457.04 201C456.693 201.427 456.347 201.853 456 202.28C455.68 202.68 455.373 203.093 455.08 203.52C454.787 203.947 454.493 204.373 454.2 204.8C453.907 205.227 453.613 205.653 453.32 206.08C452.467 207.36 451.787 208.64 451.28 209.92C451.04 210.56 450.813 211.16 450.6 211.72C450.413 212.28 450.253 212.8 450.12 213.28C450.04 213.6 450 213.88 450 214.12C450 214.547 450.12 214.893 450.36 215.16C450.6 215.4 450.987 215.52 451.52 215.52C452.08 215.52 452.787 215.347 453.64 215C454.52 214.653 455.56 214.053 456.76 213.2C457.667 212.56 458.627 211.84 459.64 211.04C460.12 210.64 460.6 210.24 461.08 209.84C461.56 209.413 462.027 208.973 462.48 208.52C462.933 208.093 463.387 207.667 463.84 207.24C464.293 206.813 464.733 206.373 465.16 205.92C465.587 205.493 465.987 205.08 466.36 204.68C466.76 204.253 467.133 203.84 467.48 203.44V204ZM495.872 197.8C495.019 198.973 494.059 200.027 492.992 200.96C491.926 201.893 490.872 202.653 489.832 203.24C488.766 203.853 487.739 204.32 486.752 204.64C486.246 204.8 485.766 204.933 485.312 205.04C484.886 205.12 484.459 205.173 484.032 205.2C483.606 205.867 483.179 206.493 482.752 207.08C482.352 207.667 481.939 208.227 481.512 208.76C481.086 209.293 480.659 209.8 480.232 210.28C479.806 210.76 479.366 211.227 478.912 211.68C478.059 212.48 477.112 213.24 476.072 213.96C475.059 214.653 473.979 215.253 472.832 215.76C472.379 215.973 471.872 216.08 471.312 216.08C470.619 216.08 470.006 215.853 469.472 215.4C468.966 214.973 468.712 214.24 468.712 213.2C468.712 212.347 468.952 211.32 469.432 210.12C469.886 208.947 470.526 207.693 471.352 206.36C472.126 205.08 473.059 203.773 474.152 202.44C475.166 201.213 476.272 200.053 477.472 198.96C478.059 198.453 478.632 198 479.192 197.6C479.779 197.173 480.379 196.8 480.992 196.48C482.139 195.84 483.259 195.52 484.352 195.52C485.019 195.52 485.552 195.747 485.952 196.2C486.326 196.653 486.512 197.413 486.512 198.48V198.64C486.512 198.8 486.486 198.987 486.432 199.2C486.406 199.387 486.366 199.613 486.312 199.88C486.259 200.12 486.179 200.373 486.072 200.64C485.992 200.88 485.899 201.147 485.792 201.44C485.686 201.707 485.579 201.973 485.472 202.24C485.392 202.507 485.286 202.787 485.152 203.08C485.019 203.373 484.886 203.653 484.752 203.92C484.646 204.16 484.526 204.387 484.392 204.6C484.819 204.573 485.232 204.533 485.632 204.48C486.059 204.4 486.472 204.307 486.872 204.2C487.272 204.093 487.686 203.947 488.112 203.76C488.539 203.573 488.979 203.347 489.432 203.08C490.259 202.573 491.232 201.853 492.352 200.92C493.392 199.987 494.579 198.76 495.912 197.24L495.872 197.8ZM485.952 198.64C485.952 197.68 485.832 197 485.592 196.6C485.352 196.227 484.992 196.04 484.512 196.04C483.606 196.04 482.619 196.373 481.552 197.04C481.019 197.387 480.472 197.773 479.912 198.2C479.379 198.627 478.846 199.107 478.312 199.64C477.219 200.733 476.179 201.933 475.192 203.24C474.206 204.547 473.299 205.88 472.472 207.24C472.099 207.907 471.752 208.56 471.432 209.2C471.112 209.84 470.832 210.467 470.592 211.08C470.139 212.307 469.912 213.307 469.912 214.08C469.912 215.173 470.379 215.72 471.312 215.72C471.766 215.72 472.192 215.627 472.592 215.44C473.472 215.067 474.406 214.533 475.392 213.84C476.352 213.147 477.326 212.307 478.312 211.32C479.272 210.36 480.192 209.32 481.072 208.2C481.526 207.64 481.939 207.08 482.312 206.52C482.712 205.96 483.086 205.387 483.432 204.8C483.779 204.24 484.099 203.693 484.392 203.16C484.686 202.6 484.939 202.053 485.152 201.52C485.606 200.4 485.872 199.44 485.952 198.64ZM517.889 203.36C517.516 203.76 517.116 204.187 516.689 204.64C516.289 205.067 515.863 205.533 515.409 206.04C514.956 206.547 514.489 207.053 514.009 207.56C513.556 208.067 513.063 208.587 512.529 209.12C511.489 210.16 510.356 211.213 509.129 212.28C508.516 212.813 507.876 213.333 507.209 213.84C506.543 214.32 505.836 214.8 505.089 215.28C504.369 215.76 503.716 216 503.129 216C502.569 216 502.116 215.8 501.769 215.4C501.423 215.053 501.249 214.48 501.249 213.68C501.329 213.173 501.516 212.6 501.809 211.96C501.943 211.667 502.076 211.36 502.209 211.04C502.369 210.72 502.556 210.373 502.769 210C503.036 209.493 503.329 208.987 503.649 208.48C503.996 207.947 504.356 207.413 504.729 206.88C505.103 206.347 505.489 205.813 505.889 205.28C506.289 204.72 506.689 204.173 507.089 203.64C507.463 203.107 507.823 202.573 508.169 202.04C508.543 201.507 508.903 200.973 509.249 200.44C509.863 199.427 510.316 198.453 510.609 197.52C510.689 197.28 510.729 197.053 510.729 196.84C510.729 196.547 510.636 196.32 510.449 196.16C510.289 196 510.063 195.92 509.769 195.92C509.476 195.92 509.183 195.973 508.889 196.08C508.729 196.133 508.569 196.213 508.409 196.32C508.249 196.4 508.076 196.507 507.889 196.64C507.596 196.853 507.249 197.133 506.849 197.48C506.449 197.827 505.983 198.253 505.449 198.76C504.943 199.24 504.409 199.76 503.849 200.32C503.316 200.88 502.756 201.467 502.169 202.08C500.996 203.333 499.836 204.653 498.689 206.04C497.569 207.4 496.583 208.747 495.729 210.08L491.969 216H490.369L503.169 195.6H504.769L499.809 203.28C501.009 201.92 502.249 200.64 503.529 199.44C504.729 198.32 506.076 197.28 507.569 196.32C507.996 196.053 508.423 195.853 508.849 195.72C509.196 195.64 509.543 195.6 509.889 195.6C510.449 195.6 510.903 195.747 511.249 196.04C511.569 196.333 511.729 196.667 511.729 197.04C511.729 197.253 511.703 197.507 511.649 197.8C511.623 198.067 511.583 198.387 511.529 198.76C511.423 199.427 511.089 200.187 510.529 201.04C509.969 201.893 509.409 202.733 508.849 203.56C508.289 204.387 507.729 205.213 507.169 206.04C506.636 206.867 506.089 207.693 505.529 208.52C504.969 209.32 504.423 210.133 503.889 210.96C503.489 211.547 503.183 212.04 502.969 212.44C502.863 212.627 502.769 212.813 502.689 213C502.609 213.187 502.529 213.387 502.449 213.6C502.316 214 502.249 214.28 502.249 214.44C502.249 214.787 502.369 215.04 502.609 215.2C502.823 215.333 503.076 215.4 503.369 215.4C503.849 215.4 504.316 215.253 504.769 214.96C505.436 214.507 506.063 214.053 506.649 213.6C507.263 213.147 507.863 212.68 508.449 212.2C509.009 211.747 509.556 211.28 510.089 210.8C510.649 210.293 511.196 209.773 511.729 209.24C512.769 208.227 513.796 207.16 514.809 206.04C515.316 205.507 515.823 204.96 516.329 204.4C516.836 203.813 517.356 203.227 517.889 202.64V203.36ZM538.467 192.8H531.987L520.627 211.12C520.253 211.733 519.973 212.24 519.787 212.64C519.627 212.987 519.507 213.36 519.427 213.76C519.427 214.427 519.507 214.88 519.667 215.12C519.8 215.333 520.04 215.44 520.387 215.44C521.32 215.44 522.32 215.147 523.387 214.56C524.4 214.027 525.453 213.307 526.547 212.4C527.587 211.6 528.627 210.653 529.667 209.56C530.173 209.053 530.653 208.56 531.107 208.08C531.587 207.573 532.04 207.08 532.467 206.6C532.867 206.12 533.253 205.667 533.627 205.24C534 204.813 534.347 204.413 534.667 204.04C534.987 203.667 535.267 203.36 535.507 203.12C535.747 202.853 535.933 202.653 536.067 202.52L536.107 203.2C535.973 203.333 535.8 203.52 535.587 203.76C535.4 203.973 535.16 204.267 534.867 204.64C534.253 205.36 533.533 206.2 532.707 207.16C532.28 207.613 531.84 208.093 531.387 208.6C530.933 209.08 530.44 209.587 529.907 210.12C528.947 211.107 527.88 212.067 526.707 213C525.56 213.853 524.427 214.573 523.307 215.16C522.187 215.72 521.107 216 520.067 216C519.24 216 518.667 215.787 518.347 215.36C518.053 214.907 517.907 214.427 517.907 213.92C517.907 213.253 518.067 212.533 518.387 211.76C518.547 211.387 518.72 211.013 518.907 210.64C519.12 210.267 519.347 209.893 519.587 209.52L530.147 192.8H525.027V192.4H530.387L533.507 187.36H535.107L532.227 192.4H538.467V192.8ZM554.442 187.12C554.442 187.52 554.309 187.867 554.042 188.16C553.749 188.48 553.376 188.64 552.922 188.64C552.442 188.64 552.056 188.507 551.762 188.24C551.469 187.947 551.322 187.547 551.322 187.04C551.322 186.667 551.482 186.333 551.802 186.04C552.096 185.747 552.469 185.6 552.922 185.6C553.296 185.6 553.656 185.747 554.002 186.04C554.296 186.333 554.442 186.693 554.442 187.12ZM553.162 203.2L552.762 204.4C552.336 204.853 551.909 205.307 551.482 205.76C551.056 206.213 550.616 206.693 550.162 207.2C549.709 207.707 549.242 208.2 548.762 208.68C548.282 209.16 547.789 209.653 547.282 210.16C546.776 210.64 546.256 211.12 545.722 211.6C545.189 212.08 544.629 212.547 544.042 213C542.842 213.933 541.589 214.773 540.282 215.52C539.562 215.84 538.949 216 538.442 216C537.962 216 537.589 215.88 537.322 215.64C537.056 215.4 536.816 215.093 536.602 214.72C536.496 214.373 536.442 213.987 536.442 213.56C536.442 213.053 536.549 212.52 536.762 211.96C536.869 211.693 536.989 211.427 537.122 211.16C537.282 210.893 537.456 210.613 537.642 210.32L547.242 195.6H548.842L539.402 210.48C538.922 211.253 538.482 212.013 538.082 212.76C537.682 213.48 537.482 214.027 537.482 214.4C537.482 214.827 537.589 215.12 537.802 215.28C538.016 215.413 538.256 215.48 538.522 215.48C538.816 215.48 539.122 215.44 539.442 215.36C539.736 215.28 539.989 215.173 540.202 215.04C541.509 214.293 542.802 213.413 544.082 212.4C544.696 211.893 545.296 211.373 545.882 210.84C546.469 210.307 547.029 209.773 547.562 209.24C548.096 208.707 548.616 208.173 549.122 207.64C549.629 207.107 550.122 206.573 550.602 206.04C551.056 205.507 551.496 205.013 551.922 204.56C552.376 204.08 552.789 203.627 553.162 203.2ZM579.138 203.36C578.764 203.76 578.364 204.187 577.938 204.64C577.538 205.067 577.111 205.533 576.658 206.04C576.204 206.547 575.738 207.053 575.258 207.56C574.804 208.067 574.311 208.587 573.778 209.12C572.738 210.16 571.604 211.213 570.378 212.28C569.764 212.813 569.124 213.333 568.458 213.84C567.791 214.32 567.084 214.8 566.338 215.28C565.618 215.76 564.964 216 564.378 216C563.818 216 563.364 215.8 563.018 215.4C562.671 215.053 562.498 214.48 562.498 213.68C562.578 213.173 562.764 212.6 563.058 211.96C563.191 211.667 563.324 211.36 563.458 211.04C563.618 210.72 563.804 210.373 564.018 210C564.284 209.493 564.578 208.987 564.898 208.48C565.244 207.947 565.604 207.413 565.978 206.88C566.351 206.347 566.738 205.813 567.138 205.28C567.538 204.72 567.938 204.173 568.338 203.64C568.711 203.107 569.071 202.573 569.418 202.04C569.791 201.507 570.151 200.973 570.498 200.44C571.111 199.427 571.564 198.453 571.858 197.52C571.938 197.28 571.978 197.053 571.978 196.84C571.978 196.547 571.884 196.32 571.698 196.16C571.538 196 571.311 195.92 571.018 195.92C570.724 195.92 570.431 195.973 570.138 196.08C569.978 196.133 569.818 196.213 569.658 196.32C569.498 196.4 569.324 196.507 569.138 196.64C568.844 196.853 568.498 197.133 568.098 197.48C567.698 197.827 567.231 198.253 566.698 198.76C566.191 199.24 565.658 199.76 565.098 200.32C564.564 200.88 564.004 201.467 563.418 202.08C562.244 203.333 561.084 204.653 559.938 206.04C558.818 207.4 557.831 208.747 556.978 210.08L553.218 216H551.618L564.418 195.6H566.018L561.058 203.28C562.258 201.92 563.498 200.64 564.778 199.44C565.978 198.32 567.324 197.28 568.818 196.32C569.244 196.053 569.671 195.853 570.098 195.72C570.444 195.64 570.791 195.6 571.138 195.6C571.698 195.6 572.151 195.747 572.498 196.04C572.818 196.333 572.978 196.667 572.978 197.04C572.978 197.253 572.951 197.507 572.898 197.8C572.871 198.067 572.831 198.387 572.778 198.76C572.671 199.427 572.338 200.187 571.778 201.04C571.218 201.893 570.658 202.733 570.098 203.56C569.538 204.387 568.978 205.213 568.418 206.04C567.884 206.867 567.338 207.693 566.778 208.52C566.218 209.32 565.671 210.133 565.138 210.96C564.738 211.547 564.431 212.04 564.218 212.44C564.111 212.627 564.018 212.813 563.938 213C563.858 213.187 563.778 213.387 563.698 213.6C563.564 214 563.498 214.28 563.498 214.44C563.498 214.787 563.618 215.04 563.858 215.2C564.071 215.333 564.324 215.4 564.618 215.4C565.098 215.4 565.564 215.253 566.018 214.96C566.684 214.507 567.311 214.053 567.898 213.6C568.511 213.147 569.111 212.68 569.698 212.2C570.258 211.747 570.804 211.28 571.338 210.8C571.898 210.293 572.444 209.773 572.978 209.24C574.018 208.227 575.044 207.16 576.058 206.04C576.564 205.507 577.071 204.96 577.578 204.4C578.084 203.813 578.604 203.227 579.138 202.64V203.36ZM599.395 203.52C599.102 203.92 598.782 204.347 598.435 204.8C598.088 205.227 597.715 205.667 597.315 206.12C596.942 206.573 596.528 207.04 596.075 207.52C595.648 208 595.195 208.467 594.715 208.92C593.782 209.853 592.782 210.733 591.715 211.56C591.182 211.987 590.648 212.387 590.115 212.76C589.582 213.133 589.048 213.493 588.515 213.84C587.475 214.48 586.395 215.013 585.275 215.44C584.155 215.813 583.102 216 582.115 216C581.128 216 580.368 215.693 579.835 215.08C579.328 214.493 579.075 213.8 579.075 213C579.075 211.853 579.355 210.613 579.915 209.28C580.475 207.973 581.208 206.667 582.115 205.36C583.048 204.027 584.075 202.76 585.195 201.56C586.395 200.28 587.568 199.2 588.715 198.32C589.968 197.36 591.128 196.613 592.195 196.08C593.315 195.52 594.288 195.24 595.115 195.24C595.728 195.24 596.088 195.493 596.195 196C596.195 196.747 595.875 197.613 595.235 198.6C594.915 199.107 594.528 199.6 594.075 200.08C593.648 200.56 593.168 201.053 592.635 201.56C591.595 202.493 590.315 203.387 588.795 204.24C587.355 205.093 585.822 205.733 584.195 206.16C584.035 206.373 583.862 206.613 583.675 206.88C583.488 207.12 583.288 207.4 583.075 207.72C582.675 208.333 582.262 209.027 581.835 209.8C581.462 210.547 581.142 211.28 580.875 212C580.608 212.72 580.475 213.4 580.475 214.04C580.475 214.573 580.648 214.933 580.995 215.12C581.342 215.307 581.742 215.4 582.195 215.4C583.848 215.4 585.462 215 587.035 214.2C588.555 213.427 590.035 212.44 591.475 211.24C592.168 210.68 592.835 210.093 593.475 209.48C594.115 208.84 594.742 208.187 595.355 207.52C595.942 206.853 596.488 206.24 596.995 205.68C597.502 205.093 597.982 204.533 598.435 204C598.488 203.92 598.555 203.84 598.635 203.76C598.715 203.68 598.782 203.587 598.835 203.48C598.888 203.4 598.955 203.32 599.035 203.24C599.115 203.16 599.182 203.093 599.235 203.04L599.395 203.52ZM595.875 196.16C595.875 195.733 595.622 195.52 595.115 195.52C594.475 195.52 593.822 195.72 593.155 196.12C592.462 196.52 591.782 197.04 591.115 197.68C590.768 198 590.435 198.347 590.115 198.72C589.795 199.067 589.475 199.427 589.155 199.8C588.835 200.173 588.515 200.56 588.195 200.96C587.902 201.333 587.608 201.707 587.315 202.08C587.022 202.453 586.742 202.813 586.475 203.16C586.235 203.507 585.995 203.84 585.755 204.16C585.542 204.453 585.328 204.72 585.115 204.96C584.928 205.2 584.755 205.413 584.595 205.6C586.248 205.093 587.782 204.413 589.195 203.56C589.888 203.16 590.528 202.747 591.115 202.32C591.702 201.893 592.248 201.453 592.755 201C593.715 200.147 594.488 199.267 595.075 198.36C595.608 197.507 595.875 196.773 595.875 196.16ZM624.749 203.36C624.375 203.76 623.975 204.187 623.549 204.64C623.149 205.067 622.722 205.533 622.269 206.04C621.815 206.547 621.349 207.053 620.869 207.56C620.415 208.067 619.922 208.587 619.389 209.12C618.349 210.16 617.215 211.213 615.989 212.28C615.375 212.813 614.735 213.333 614.069 213.84C613.402 214.32 612.695 214.8 611.949 215.28C611.229 215.76 610.575 216 609.989 216C609.429 216 608.975 215.8 608.629 215.4C608.282 215.053 608.109 214.48 608.109 213.68C608.189 213.173 608.375 212.6 608.669 211.96C608.802 211.667 608.935 211.36 609.069 211.04C609.229 210.72 609.415 210.373 609.629 210C609.895 209.493 610.189 208.987 610.509 208.48C610.855 207.947 611.215 207.413 611.589 206.88C611.962 206.347 612.349 205.813 612.749 205.28C613.149 204.72 613.549 204.173 613.949 203.64C614.322 203.107 614.682 202.573 615.029 202.04C615.402 201.507 615.762 200.973 616.109 200.44C616.722 199.427 617.175 198.453 617.469 197.52C617.549 197.28 617.589 197.053 617.589 196.84C617.589 196.547 617.495 196.32 617.309 196.16C617.149 196 616.922 195.92 616.629 195.92C616.335 195.92 616.042 195.973 615.749 196.08C615.589 196.133 615.429 196.213 615.269 196.32C615.109 196.4 614.935 196.507 614.749 196.64C614.455 196.853 614.109 197.133 613.709 197.48C613.309 197.827 612.842 198.253 612.309 198.76C611.802 199.24 611.269 199.76 610.709 200.32C610.175 200.88 609.615 201.467 609.029 202.08C607.855 203.333 606.695 204.653 605.549 206.04C604.429 207.4 603.442 208.747 602.589 210.08L598.829 216H597.229L610.029 195.6H611.629L606.669 203.28C607.869 201.92 609.109 200.64 610.389 199.44C611.589 198.32 612.935 197.28 614.429 196.32C614.855 196.053 615.282 195.853 615.709 195.72C616.055 195.64 616.402 195.6 616.749 195.6C617.309 195.6 617.762 195.747 618.109 196.04C618.429 196.333 618.589 196.667 618.589 197.04C618.589 197.253 618.562 197.507 618.509 197.8C618.482 198.067 618.442 198.387 618.389 198.76C618.282 199.427 617.949 200.187 617.389 201.04C616.829 201.893 616.269 202.733 615.709 203.56C615.149 204.387 614.589 205.213 614.029 206.04C613.495 206.867 612.949 207.693 612.389 208.52C611.829 209.32 611.282 210.133 610.749 210.96C610.349 211.547 610.042 212.04 609.829 212.44C609.722 212.627 609.629 212.813 609.549 213C609.469 213.187 609.389 213.387 609.309 213.6C609.175 214 609.109 214.28 609.109 214.44C609.109 214.787 609.229 215.04 609.469 215.2C609.682 215.333 609.935 215.4 610.229 215.4C610.709 215.4 611.175 215.253 611.629 214.96C612.295 214.507 612.922 214.053 613.509 213.6C614.122 213.147 614.722 212.68 615.309 212.2C615.869 211.747 616.415 211.28 616.949 210.8C617.509 210.293 618.055 209.773 618.589 209.24C619.629 208.227 620.655 207.16 621.669 206.04C622.175 205.507 622.682 204.96 623.189 204.4C623.695 203.813 624.215 203.227 624.749 202.64V203.36ZM645.326 192.8H638.846L627.486 211.12C627.113 211.733 626.833 212.24 626.646 212.64C626.486 212.987 626.366 213.36 626.286 213.76C626.286 214.427 626.366 214.88 626.526 215.12C626.659 215.333 626.899 215.44 627.246 215.44C628.179 215.44 629.179 215.147 630.246 214.56C631.259 214.027 632.313 213.307 633.406 212.4C634.446 211.6 635.486 210.653 636.526 209.56C637.033 209.053 637.513 208.56 637.966 208.08C638.446 207.573 638.899 207.08 639.326 206.6C639.726 206.12 640.113 205.667 640.486 205.24C640.859 204.813 641.206 204.413 641.526 204.04C641.846 203.667 642.126 203.36 642.366 203.12C642.606 202.853 642.793 202.653 642.926 202.52L642.966 203.2C642.833 203.333 642.659 203.52 642.446 203.76C642.259 203.973 642.019 204.267 641.726 204.64C641.113 205.36 640.393 206.2 639.566 207.16C639.139 207.613 638.699 208.093 638.246 208.6C637.793 209.08 637.299 209.587 636.766 210.12C635.806 211.107 634.739 212.067 633.566 213C632.419 213.853 631.286 214.573 630.166 215.16C629.046 215.72 627.966 216 626.926 216C626.099 216 625.526 215.787 625.206 215.36C624.913 214.907 624.766 214.427 624.766 213.92C624.766 213.253 624.926 212.533 625.246 211.76C625.406 211.387 625.579 211.013 625.766 210.64C625.979 210.267 626.206 209.893 626.446 209.52L637.006 192.8H631.886V192.4H637.246L640.366 187.36H641.966L639.086 192.4H645.326V192.8ZM668.182 202.4C667.408 203.413 666.568 204.493 665.662 205.64C665.208 206.2 664.742 206.76 664.262 207.32C663.782 207.88 663.288 208.453 662.782 209.04C661.768 210.16 660.702 211.267 659.582 212.36C659.022 212.893 658.435 213.413 657.822 213.92C657.235 214.4 656.635 214.88 656.022 215.36C655.382 215.84 654.742 216.08 654.102 216.08C653.648 216.08 653.235 215.933 652.862 215.64C652.515 215.373 652.342 214.88 652.342 214.16C652.342 213.36 652.488 212.48 652.782 211.52C653.048 210.64 653.408 209.84 653.862 209.12C652.982 210.24 651.955 211.347 650.782 212.44C649.582 213.56 648.128 214.613 646.422 215.6C645.808 215.867 645.288 216 644.862 216C644.142 216 643.622 215.693 643.302 215.08C643.008 214.44 642.862 213.76 642.862 213.04C642.862 212.24 643.115 211.28 643.622 210.16C643.888 209.573 644.182 208.987 644.502 208.4C644.822 207.787 645.195 207.147 645.622 206.48C646.048 205.84 646.502 205.2 646.982 204.56C647.462 203.92 647.968 203.267 648.502 202.6C649.035 201.96 649.582 201.36 650.142 200.8C650.728 200.213 651.315 199.653 651.902 199.12C653.022 198.107 654.182 197.253 655.382 196.56C656.528 195.92 657.595 195.6 658.582 195.6C659.195 195.6 659.622 195.787 659.862 196.16C660.075 196.533 660.182 196.987 660.182 197.52V198.04C660.182 198.173 660.155 198.373 660.102 198.64L661.942 195.6H663.542L655.702 208.88C655.488 209.253 655.275 209.64 655.062 210.04C654.848 210.44 654.635 210.867 654.422 211.32C654.208 211.773 654.022 212.227 653.862 212.68C653.728 213.133 653.595 213.573 653.462 214C653.382 214.24 653.342 214.453 653.342 214.64C653.342 215.2 653.635 215.48 654.222 215.48C654.755 215.48 655.302 215.28 655.862 214.88C656.155 214.667 656.515 214.373 656.942 214C657.368 213.627 657.848 213.173 658.382 212.64C658.915 212.133 659.462 211.6 660.022 211.04C660.582 210.453 661.168 209.84 661.782 209.2C662.395 208.56 662.982 207.92 663.542 207.28C664.128 206.613 664.715 205.933 665.302 205.24C666.448 203.88 667.408 202.64 668.182 201.52V202.4ZM659.822 197.56C659.795 197.293 659.755 197.067 659.702 196.88C659.648 196.667 659.595 196.493 659.542 196.36C659.408 196.12 659.062 196 658.502 196C657.515 196 656.488 196.373 655.422 197.12C654.382 197.813 653.315 198.747 652.222 199.92C651.688 200.507 651.168 201.12 650.662 201.76C650.155 202.4 649.648 203.067 649.142 203.76C648.662 204.453 648.195 205.16 647.742 205.88C647.315 206.573 646.915 207.267 646.542 207.96C645.795 209.293 645.195 210.56 644.742 211.76C644.315 212.88 644.102 213.773 644.102 214.44C644.102 214.76 644.168 215.027 644.302 215.24C644.435 215.453 644.688 215.56 645.062 215.56C645.462 215.56 645.835 215.467 646.182 215.28C647.142 214.747 648.008 214.2 648.782 213.64C649.582 213.053 650.288 212.467 650.902 211.88C652.128 210.68 653.195 209.36 654.102 207.92L659.142 199.92C659.355 199.547 659.528 199.133 659.662 198.68C659.768 198.333 659.822 197.96 659.822 197.56ZM694.083 176.4L672.563 210.48C672.083 211.253 671.643 212.013 671.243 212.76C670.843 213.48 670.643 214.027 670.643 214.4C670.643 214.773 670.763 215.04 671.003 215.2C671.27 215.333 671.55 215.4 671.843 215.4C672.91 215.4 673.936 215.147 674.923 214.64C675.936 214.16 676.91 213.533 677.843 212.76C678.296 212.387 678.75 211.987 679.203 211.56C679.656 211.133 680.096 210.693 680.523 210.24C680.95 209.787 681.363 209.347 681.763 208.92C682.19 208.467 682.59 208.013 682.963 207.56C683.336 207.107 683.696 206.68 684.043 206.28C684.39 205.88 684.723 205.493 685.043 205.12C685.71 204.373 686.27 203.827 686.723 203.48L686.083 204.84C685.683 205.16 685.19 205.653 684.603 206.32C684.31 206.667 684.003 207.027 683.683 207.4C683.363 207.747 683.016 208.133 682.643 208.56C682.296 208.987 681.936 209.413 681.563 209.84C681.19 210.24 680.79 210.667 680.363 211.12C679.51 212 678.63 212.8 677.723 213.52C676.763 214.267 675.816 214.867 674.883 215.32C673.843 215.773 672.83 216 671.843 216C671.336 216 670.91 215.88 670.563 215.64C670.27 215.427 670.003 215.12 669.763 214.72C669.656 214.4 669.603 214.04 669.603 213.64C669.603 213.107 669.723 212.573 669.963 212.04C670.096 211.8 670.23 211.547 670.363 211.28C670.496 210.987 670.67 210.693 670.883 210.4L692.483 176.4H694.083ZM731.411 204.08C730.798 204.72 730.131 205.387 729.411 206.08C728.718 206.747 727.984 207.453 727.211 208.2C726.438 208.947 725.651 209.68 724.851 210.4C724.078 211.12 723.278 211.853 722.451 212.6C721.624 213.32 720.811 214.027 720.011 214.72C719.211 215.413 718.398 216.093 717.571 216.76C715.918 218.093 714.398 219.253 713.011 220.24C712.371 221.227 711.704 222.24 711.011 223.28C710.318 224.32 709.584 225.4 708.811 226.52C708.038 227.64 707.264 228.733 706.491 229.8C705.691 230.893 704.878 232 704.051 233.12C703.224 234.213 702.398 235.267 701.571 236.28C700.744 237.293 699.904 238.293 699.051 239.28C698.198 240.24 697.358 241.12 696.531 241.92C695.704 242.747 694.878 243.493 694.051 244.16C692.638 245.28 691.491 245.84 690.611 245.84C690.078 245.84 689.664 245.653 689.371 245.28C689.078 244.907 688.931 244.413 688.931 243.8C688.931 243.373 689.011 242.853 689.171 242.24C689.304 241.707 689.571 241.093 689.971 240.4C690.504 239.52 691.104 238.64 691.771 237.76C692.438 236.88 693.184 235.987 694.011 235.08C694.838 234.2 695.704 233.333 696.611 232.48C697.491 231.627 698.411 230.773 699.371 229.92C700.304 229.093 701.264 228.28 702.251 227.48C703.211 226.707 704.184 225.947 705.171 225.2C706.158 224.453 707.091 223.733 707.971 223.04C708.878 222.373 709.758 221.733 710.611 221.12L718.051 209.68C717.518 210.16 716.918 210.76 716.251 211.48C715.611 212.2 714.904 212.907 714.131 213.6C713.758 213.947 713.371 214.267 712.971 214.56C712.571 214.827 712.158 215.093 711.731 215.36C710.878 215.84 709.984 216.08 709.051 216.08C708.304 216.08 707.718 215.827 707.291 215.32C706.838 214.787 706.611 214.133 706.611 213.36C706.611 212.373 706.891 211.24 707.451 209.96C707.718 209.347 708.024 208.72 708.371 208.08C708.744 207.413 709.158 206.747 709.611 206.08C710.464 204.8 711.491 203.52 712.691 202.24C713.251 201.627 713.824 201.04 714.411 200.48C714.998 199.92 715.598 199.387 716.211 198.88C717.438 197.867 718.611 197.067 719.731 196.48C720.878 195.893 721.904 195.6 722.811 195.6C723.904 195.6 724.451 196.24 724.451 197.52C724.451 198.32 724.238 199.227 723.811 200.24L726.931 195.6H728.531L714.291 218.48C715.064 217.893 715.851 217.293 716.651 216.68C717.451 216.067 718.251 215.413 719.051 214.72C719.824 214.027 720.598 213.347 721.371 212.68C722.144 212.013 722.904 211.333 723.651 210.64C724.398 209.947 725.118 209.28 725.811 208.64C726.531 207.973 727.224 207.333 727.891 206.72C728.558 206.107 729.184 205.52 729.771 204.96C730.358 204.4 730.904 203.867 731.411 203.36V204.08ZM723.851 197.64C723.851 197.16 723.744 196.773 723.531 196.48C723.344 196.213 723.038 196.08 722.611 196.08C721.811 196.08 720.878 196.453 719.811 197.2C718.744 197.947 717.664 198.88 716.571 200C716.038 200.56 715.491 201.16 714.931 201.8C714.398 202.44 713.864 203.107 713.331 203.8C712.318 205.16 711.384 206.533 710.531 207.92C710.104 208.587 709.731 209.227 709.411 209.84C709.091 210.453 708.798 211.053 708.531 211.64C708.024 212.733 707.771 213.6 707.771 214.24C707.771 214.613 707.878 214.947 708.091 215.24C708.278 215.507 708.584 215.64 709.011 215.64C709.651 215.64 710.291 215.48 710.931 215.16C711.251 215.027 711.558 214.867 711.851 214.68C712.171 214.467 712.478 214.253 712.771 214.04C713.358 213.613 713.918 213.133 714.451 212.6C714.718 212.36 714.944 212.147 715.131 211.96C715.344 211.747 715.544 211.547 715.731 211.36C716.264 210.827 716.771 210.28 717.251 209.72C717.758 209.16 718.238 208.587 718.691 208C719.144 207.44 719.558 206.88 719.931 206.32C720.331 205.76 720.704 205.2 721.051 204.64C721.398 204.107 721.704 203.573 721.971 203.04C722.264 202.507 722.531 201.973 722.771 201.44C723.198 200.48 723.518 199.547 723.731 198.64C723.811 198.293 723.851 197.96 723.851 197.64ZM709.571 222.72C708.744 223.333 707.891 223.987 707.011 224.68C706.131 225.373 705.224 226.093 704.291 226.84C703.358 227.587 702.438 228.347 701.531 229.12C700.598 229.893 699.678 230.68 698.771 231.48C697.864 232.253 697.011 233.04 696.211 233.84C695.384 234.64 694.598 235.427 693.851 236.2C692.358 237.773 691.198 239.253 690.371 240.64C689.971 241.28 689.704 241.84 689.571 242.32C689.518 242.587 689.478 242.827 689.451 243.04C689.398 243.253 689.371 243.467 689.371 243.68C689.371 244.72 689.811 245.24 690.691 245.24C691.064 245.24 691.518 245.12 692.051 244.88C692.318 244.773 692.598 244.627 692.891 244.44C693.158 244.253 693.438 244.027 693.731 243.76C695.251 242.48 696.744 240.96 698.211 239.2C698.904 238.347 699.598 237.453 700.291 236.52C700.984 235.613 701.664 234.693 702.331 233.76C702.998 232.827 703.651 231.88 704.291 230.92C704.904 229.96 705.518 229 706.131 228.04C706.744 227.107 707.331 226.187 707.891 225.28C708.478 224.4 709.038 223.547 709.571 222.72ZM753.435 192.8H746.955L735.595 211.12C735.222 211.733 734.942 212.24 734.755 212.64C734.595 212.987 734.475 213.36 734.395 213.76C734.395 214.427 734.475 214.88 734.635 215.12C734.769 215.333 735.009 215.44 735.355 215.44C736.289 215.44 737.289 215.147 738.355 214.56C739.369 214.027 740.422 213.307 741.515 212.4C742.555 211.6 743.595 210.653 744.635 209.56C745.142 209.053 745.622 208.56 746.075 208.08C746.555 207.573 747.009 207.08 747.435 206.6C747.835 206.12 748.222 205.667 748.595 205.24C748.969 204.813 749.315 204.413 749.635 204.04C749.955 203.667 750.235 203.36 750.475 203.12C750.715 202.853 750.902 202.653 751.035 202.52L751.075 203.2C750.942 203.333 750.769 203.52 750.555 203.76C750.369 203.973 750.129 204.267 749.835 204.64C749.222 205.36 748.502 206.2 747.675 207.16C747.249 207.613 746.809 208.093 746.355 208.6C745.902 209.08 745.409 209.587 744.875 210.12C743.915 211.107 742.849 212.067 741.675 213C740.529 213.853 739.395 214.573 738.275 215.16C737.155 215.72 736.075 216 735.035 216C734.209 216 733.635 215.787 733.315 215.36C733.022 214.907 732.875 214.427 732.875 213.92C732.875 213.253 733.035 212.533 733.355 211.76C733.515 211.387 733.689 211.013 733.875 210.64C734.089 210.267 734.315 209.893 734.555 209.52L745.115 192.8H739.995V192.4H745.355L748.475 187.36H750.075L747.195 192.4H753.435V192.8Z" fill="white"/>
<line x1="267" y1="169.5" x2="499" y2="169.5" stroke="white"/>
</svg>
