<svg width="241" height="15" viewBox="0 0 241 15" fill="none" xmlns="http://www.w3.org/2000/svg">
<path d="M6.448 13H8.17V3.2H0.358V13H2.08V4.81H6.448V13ZM10.1573 8.1C10.1573 11.152 12.3413 13.154 15.2533 13.154C18.1653 13.154 20.3633 11.04 20.3633 8.1C20.3633 5.048 18.1653 3.046 15.2533 3.046C12.2433 3.046 10.1573 5.258 10.1573 8.1ZM11.9773 8.1C11.9773 6.07 13.3773 4.656 15.2533 4.656C17.1013 4.656 18.5433 6.07 18.5433 8.1C18.5433 10.032 17.3113 11.544 15.2533 11.544C13.4193 11.544 11.9773 10.06 11.9773 8.1ZM22.356 12.986C22.93 13.028 24.19 13.056 25.086 13.056C27.158 13.056 28.726 12.132 28.726 10.116C28.726 8.814 27.97 8.072 27.004 7.834V7.806C27.844 7.414 28.404 6.7 28.404 5.58C28.404 4.222 27.522 3.158 25.184 3.158C24.204 3.158 22.902 3.2 22.356 3.228V12.986ZM25.296 8.786C26.374 8.786 27.004 9.206 27.004 10.032C27.004 10.956 26.374 11.446 25.212 11.446C24.722 11.446 24.316 11.404 24.078 11.376V8.786H25.296ZM25.156 4.768C26.08 4.768 26.696 5.188 26.696 5.986C26.696 6.882 26.038 7.288 25.24 7.288H24.078V4.81C24.386 4.782 24.764 4.768 25.156 4.768ZM30.2687 8.1C30.2687 11.152 32.4527 13.154 35.3647 13.154C38.2767 13.154 40.4747 11.04 40.4747 8.1C40.4747 5.048 38.2767 3.046 35.3647 3.046C32.3547 3.046 30.2687 5.258 30.2687 8.1ZM32.0887 8.1C32.0887 6.07 33.4887 4.656 35.3647 4.656C37.2127 4.656 38.6547 6.07 38.6547 8.1C38.6547 10.032 37.4227 11.544 35.3647 11.544C33.5307 11.544 32.0887 10.06 32.0887 8.1ZM44.1894 13V9.458C44.6094 9.5 45.1694 9.5 45.4634 9.5C47.8014 9.5 49.0474 7.988 49.0474 6.322C49.0474 4.712 48.1374 3.172 45.2534 3.172C44.5674 3.172 43.0134 3.2 42.4674 3.2V13H44.1894ZM45.4214 4.782C46.5974 4.782 47.2274 5.286 47.2274 6.308C47.2274 7.4 46.4294 7.89 45.4074 7.89C45.0154 7.89 44.5954 7.862 44.1894 7.82V4.81C44.6514 4.796 45.0714 4.782 45.4214 4.782ZM50.2433 8.1C50.2433 11.152 52.4273 13.154 55.3393 13.154C58.2513 13.154 60.4493 11.04 60.4493 8.1C60.4493 5.048 58.2513 3.046 55.3393 3.046C52.3293 3.046 50.2433 5.258 50.2433 8.1ZM52.0633 8.1C52.0633 6.07 53.4633 4.656 55.3393 4.656C57.1873 4.656 58.6293 6.07 58.6293 8.1C58.6293 10.032 57.3973 11.544 55.3393 11.544C53.5053 11.544 52.0633 10.06 52.0633 8.1ZM60.7728 4.81H63.9508V13H65.6728V4.81H68.8508V3.2H60.7728V4.81ZM76.5463 13H78.2543V3.2H76.5463V7.204H72.0663V3.2H70.3443V13H72.0663V8.814H76.5463V13ZM88.6394 13H90.3474V3.2H88.6394V13ZM83.6414 8.1C84.8454 8.1 85.5454 8.646 85.5454 9.696C85.5454 10.844 84.8734 11.418 83.6134 11.418C83.2774 11.418 82.9974 11.39 82.6894 11.376V8.17C83.0814 8.128 83.3754 8.1 83.6414 8.1ZM82.6894 3.2H80.9674V13C81.5414 13 82.4794 13.028 83.4034 13.028C85.9094 13.028 87.3654 11.726 87.3654 9.654C87.3654 7.736 86.2034 6.49 83.7814 6.49C83.5014 6.49 83.1234 6.504 82.6894 6.56V3.2ZM94.579 13L99.717 6.042V13H101.439V3.2H99.927L94.789 10.172V3.2H93.067V13H94.579ZM94.621 0.819999C94.719 2.01 95.741 2.822 97.421 2.822C98.961 2.822 100.109 2.024 100.151 0.819999H98.541C98.485 1.422 98.051 1.632 97.421 1.632C96.721 1.632 96.343 1.366 96.231 0.819999H94.621ZM105.932 14.75H107.542V13H114.388V14.75H115.998V11.39H114.668V3.2H108.592L108.494 5.16C108.326 8.814 107.388 10.886 106.982 11.39H105.932V14.75ZM110.104 6.518L110.258 4.81H112.96V11.39H108.872C109.222 10.956 109.922 9.052 110.104 6.518ZM119.216 13L124.354 6.042V13H126.076V3.2H124.564L119.426 10.172V3.2H117.704V13H119.216ZM135.596 10.76C134.924 11.278 134.098 11.544 133.272 11.544C131.27 11.544 129.884 10.144 129.884 8.1C129.884 5.972 131.256 4.656 133.076 4.656C134.056 4.656 134.7 4.922 135.288 5.314L136.058 4.04C135.414 3.452 134.35 3.046 133.076 3.046C129.842 3.046 128.064 5.286 128.064 8.1C128.064 11.152 130.122 13.154 133.118 13.154C134.392 13.154 135.638 12.706 136.254 12.048L135.596 10.76ZM144.055 13H145.777V3.2H137.965V13H139.687V4.81H144.055V13ZM154.275 13H155.983V3.2H149.809L149.669 5.16C149.235 11.068 148.241 11.39 147.485 11.292L147.443 13C149.375 13.28 150.649 12.356 151.223 6.658L151.419 4.81H154.275V13ZM158.692 13H164.502V11.39H160.414V8.856H163.942V7.246H160.414V4.81H164.362V3.2H158.692V13ZM168.257 13L173.395 6.042V13H175.117V3.2H173.605L168.467 10.172V3.2H166.745V13H168.257ZM168.299 0.819999C168.397 2.01 169.419 2.822 171.099 2.822C172.639 2.822 173.787 2.024 173.829 0.819999H172.219C172.163 1.422 171.729 1.632 171.099 1.632C170.399 1.632 170.021 1.366 169.909 0.819999H168.299ZM180.799 12.986C181.373 13.028 182.633 13.056 183.529 13.056C185.601 13.056 187.169 12.132 187.169 10.116C187.169 8.814 186.413 8.072 185.447 7.834V7.806C186.287 7.414 186.847 6.7 186.847 5.58C186.847 4.222 185.965 3.158 183.627 3.158C182.647 3.158 181.345 3.2 180.799 3.228V12.986ZM183.739 8.786C184.817 8.786 185.447 9.206 185.447 10.032C185.447 10.956 184.817 11.446 183.655 11.446C183.165 11.446 182.759 11.404 182.521 11.376V8.786H183.739ZM183.599 4.768C184.523 4.768 185.139 5.188 185.139 5.986C185.139 6.882 184.481 7.288 183.683 7.288H182.521V4.81C182.829 4.782 183.207 4.768 183.599 4.768ZM189.44 13H195.25V11.39H191.162V8.856H194.69V7.246H191.162V4.81H195.11V3.2H189.44V13ZM205.865 13V3.2H204.255V10.018L198.865 3.2H197.493V13H199.103V6.21L204.493 13H205.865ZM207.363 4.81H210.541V13H212.263V4.81H215.441V3.2H207.363V4.81ZM216.934 13H223.066V11.39H218.656V3.2H216.934V13ZM224.59 13H230.4V11.39H226.312V8.856H229.84V7.246H226.312V4.81H230.26V3.2H224.59V13ZM240.021 3.2H238.159L235.751 7.302L233.315 3.2H231.355L234.813 8.912V13H236.535V8.912L240.021 3.2Z" fill="white"/>
</svg>
