<svg width="20" height="20" viewBox="0 0 20 20" fill="none" xmlns="http://www.w3.org/2000/svg">
<path fill-rule="evenodd" clip-rule="evenodd" d="M6.22148 0.888008C7.19898 0.843008 7.51065 0.833008 10.0007 0.833008C12.4907 0.833008 12.8023 0.843841 13.779 0.888008C14.7557 0.932174 15.4223 1.08801 16.0056 1.31384C16.6165 1.54467 17.1706 1.90551 17.629 2.37217C18.0956 2.82967 18.4557 3.38301 18.6856 3.99467C18.9123 4.57801 19.0673 5.24467 19.1123 6.21967C19.1573 7.19884 19.1673 7.51051 19.1673 9.99967C19.1673 12.4897 19.1565 12.8013 19.1123 13.7788C19.0681 14.7538 18.9123 15.4205 18.6856 16.0038C18.4556 16.6156 18.095 17.1698 17.629 17.628C17.1706 18.0947 16.6165 18.4547 16.0056 18.6847C15.4223 18.9113 14.7556 19.0663 13.7806 19.1113C12.8023 19.1563 12.4907 19.1663 10.0007 19.1663C7.51065 19.1663 7.19898 19.1555 6.22148 19.1113C5.24648 19.0672 4.57982 18.9113 3.99648 18.6847C3.38475 18.4546 2.8305 18.0941 2.37232 17.628C1.90597 17.1702 1.54508 16.6162 1.31482 16.0047C1.08898 15.4213 0.933984 14.7547 0.888984 13.7797C0.843984 12.8005 0.833984 12.4888 0.833984 9.99967C0.833984 7.50967 0.844818 7.19801 0.888984 6.22134C0.933151 5.24467 1.08898 4.57801 1.31482 3.99467C1.54542 3.38308 1.90658 2.8291 2.37315 2.37134C2.83068 1.90509 3.38438 1.54421 3.99565 1.31384C4.57898 1.08801 5.24565 0.933008 6.22065 0.888008H6.22148ZM13.7048 2.53801C12.7381 2.49384 12.4481 2.48467 10.0007 2.48467C7.55315 2.48467 7.26315 2.49384 6.29648 2.53801C5.40232 2.57884 4.91732 2.72801 4.59398 2.85384C4.16648 3.02051 3.86065 3.21801 3.53982 3.53884C3.23569 3.83472 3.00163 4.19491 2.85482 4.59301C2.72898 4.91634 2.57982 5.40134 2.53898 6.29551C2.49482 7.26217 2.48565 7.55217 2.48565 9.99967C2.48565 12.4472 2.49482 12.7372 2.53898 13.7038C2.57982 14.598 2.72898 15.083 2.85482 15.4063C3.00148 15.8038 3.23565 16.1647 3.53982 16.4605C3.83565 16.7647 4.19648 16.9988 4.59398 17.1455C4.91732 17.2713 5.40232 17.4205 6.29648 17.4613C7.26315 17.5055 7.55232 17.5147 10.0007 17.5147C12.449 17.5147 12.7381 17.5055 13.7048 17.4613C14.599 17.4205 15.084 17.2713 15.4073 17.1455C15.8348 16.9788 16.1406 16.7813 16.4615 16.4605C16.7656 16.1647 16.9998 15.8038 17.1465 15.4063C17.2723 15.083 17.4215 14.598 17.4623 13.7038C17.5065 12.7372 17.5156 12.4472 17.5156 9.99967C17.5156 7.55217 17.5065 7.26217 17.4623 6.29551C17.4215 5.40134 17.2723 4.91634 17.1465 4.59301C16.9798 4.16551 16.7823 3.85967 16.4615 3.53884C16.1656 3.23473 15.8054 3.00068 15.4073 2.85384C15.084 2.72801 14.599 2.57884 13.7048 2.53801ZM8.82982 12.8255C9.4837 13.0977 10.2118 13.1344 10.8898 12.9294C11.5677 12.7244 12.1535 12.2904 12.547 11.7015C12.9405 11.1126 13.1174 10.4054 13.0474 9.70059C12.9773 8.99579 12.6648 8.33715 12.1631 7.83717C11.8433 7.51757 11.4567 7.27285 11.0309 7.12063C10.6052 6.96841 10.151 6.91247 9.70106 6.95685C9.25112 7.00123 8.81661 7.14482 8.42882 7.37728C8.04103 7.60974 7.7096 7.92529 7.4584 8.30122C7.2072 8.67714 7.04247 9.10408 6.97608 9.55131C6.90969 9.99853 6.94328 10.4549 7.07443 10.8876C7.20559 11.3203 7.43105 11.7185 7.73458 12.0536C8.03812 12.3887 8.41217 12.6523 8.82982 12.8255ZM6.66898 6.66801C7.1065 6.23049 7.62592 5.88343 8.19757 5.64664C8.76921 5.40986 9.3819 5.28799 10.0007 5.28799C10.6194 5.28799 11.2321 5.40986 11.8037 5.64664C12.3754 5.88343 12.8948 6.23049 13.3323 6.66801C13.7698 7.10553 14.1169 7.62494 14.3537 8.19659C14.5905 8.76824 14.7123 9.38093 14.7123 9.99967C14.7123 10.6184 14.5905 11.2311 14.3537 11.8028C14.1169 12.3744 13.7698 12.8938 13.3323 13.3313C12.4487 14.215 11.2503 14.7114 10.0007 14.7114C8.75103 14.7114 7.5526 14.215 6.66898 13.3313C5.78537 12.4477 5.28896 11.2493 5.28896 9.99967C5.28896 8.75006 5.78537 7.55162 6.66898 6.66801ZM15.7573 5.98967C15.8657 5.8874 15.9525 5.76441 16.0126 5.62799C16.0726 5.49156 16.1047 5.34448 16.1068 5.19545C16.109 5.04642 16.0813 4.89846 16.0252 4.76035C15.9692 4.62223 15.886 4.49677 15.7806 4.39137C15.6752 4.28598 15.5498 4.20281 15.4116 4.14677C15.2735 4.09074 15.1256 4.06299 14.9765 4.06516C14.8275 4.06733 14.6804 4.09939 14.544 4.15942C14.4076 4.21946 14.2846 4.30625 14.1823 4.41467C13.9834 4.62553 13.8745 4.90561 13.8787 5.19545C13.883 5.48529 14 5.76207 14.2049 5.96704C14.4099 6.17201 14.6867 6.28903 14.9765 6.29326C15.2664 6.29748 15.5465 6.18858 15.7573 5.98967Z" fill="#559566"/>
</svg>
