<svg width="199" height="43" viewBox="0 0 199 43" fill="none" xmlns="http://www.w3.org/2000/svg">
<path d="M3.08 14V10.458C3.5 10.5 4.06 10.5 4.354 10.5C6.692 10.5 7.938 8.988 7.938 7.322C7.938 5.712 7.028 4.172 4.144 4.172C3.458 4.172 1.904 4.2 1.358 4.2V14H3.08ZM4.312 5.782C5.488 5.782 6.118 6.286 6.118 7.308C6.118 8.4 5.32 8.89 4.298 8.89C3.906 8.89 3.486 8.862 3.08 8.82V5.81C3.542 5.796 3.962 5.782 4.312 5.782ZM17.6023 14H19.3103V4.2H17.6023V14ZM12.6043 9.1C13.8083 9.1 14.5083 9.646 14.5083 10.696C14.5083 11.844 13.8363 12.418 12.5763 12.418C12.2403 12.418 11.9603 12.39 11.6523 12.376V9.17C12.0443 9.128 12.3383 9.1 12.6043 9.1ZM11.6523 4.2H9.93027V14C10.5043 14 11.4423 14.028 12.3663 14.028C14.8723 14.028 16.3283 12.726 16.3283 10.654C16.3283 8.736 15.1663 7.49 12.7443 7.49C12.4643 7.49 12.0863 7.504 11.6523 7.56V4.2ZM28.6519 4.2H26.9299V8.414C26.4399 8.75 25.8099 9.044 25.0539 9.044C24.0879 9.044 23.3319 8.596 23.3319 7.028V4.2H21.6099V7.518C21.6099 9.856 23.1079 10.654 24.5919 10.654C25.6419 10.654 26.4679 10.318 26.9299 9.982V14H28.6519V4.2ZM30.1078 14H31.8438L32.8658 11.494H37.0518L38.0738 14H39.9078L35.7638 4.172H34.2518L30.1078 14ZM34.9658 6.398L36.3938 9.884H33.5238L34.9658 6.398ZM41.3756 14H43.0976V5.81H46.9056V4.2H41.3756V14ZM57.5281 14H59.2501V4.2H51.4381V14H53.1601V5.81H57.5281V14ZM61.9654 14H67.7754V12.39H63.6874V9.856H67.2154V8.246H63.6874V5.81H67.6354V4.2H61.9654V14ZM71.7402 14V10.458C72.1602 10.5 72.7202 10.5 73.0142 10.5C75.3522 10.5 76.5982 8.988 76.5982 7.322C76.5982 5.712 75.6882 4.172 72.8042 4.172C72.1182 4.172 70.5642 4.2 70.0182 4.2V14H71.7402ZM72.9722 5.782C74.1482 5.782 74.7782 6.286 74.7782 7.308C74.7782 8.4 73.9802 8.89 72.9582 8.89C72.5662 8.89 72.1462 8.862 71.7402 8.82V5.81C72.2022 5.796 72.6222 5.782 72.9722 5.782ZM78.5904 14H84.4004V12.39H80.3124V9.856H83.8404V8.246H80.3124V5.81H84.2604V4.2H78.5904V14ZM86.6432 14H88.3652V8.946L92.3692 14H94.5532L90.2692 8.764L94.3012 4.2H92.2292L88.3652 8.848V4.2H86.6432V14ZM101.763 14H103.471V4.2H97.297L97.157 6.16C96.723 12.068 95.729 12.39 94.973 12.292L94.931 14C96.863 14.28 98.137 13.356 98.711 7.658L98.907 5.81H101.763V14ZM106.18 14H107.902V9.814H109.54C109.848 12.46 111.864 14.154 114.356 14.154C117.268 14.154 119.326 12.04 119.326 9.1C119.326 6.048 117.268 4.046 114.356 4.046C111.752 4.046 109.932 5.81 109.568 8.204H107.902V4.2H106.18V14ZM111.318 9.1C111.318 7.07 112.648 5.656 114.412 5.656C116.26 5.656 117.506 7.07 117.506 9.1C117.506 11.032 116.47 12.544 114.412 12.544C112.69 12.544 111.318 11.06 111.318 9.1ZM127.691 4.2H125.969V8.414C125.479 8.75 124.849 9.044 124.093 9.044C123.127 9.044 122.371 8.596 122.371 7.028V4.2H120.649V7.518C120.649 9.856 122.147 10.654 123.631 10.654C124.681 10.654 125.507 10.318 125.969 9.982V14H127.691V4.2ZM130.407 14H136.217V12.39H132.129V9.856H135.657V8.246H132.129V5.81H136.077V4.2H130.407V14ZM144.662 14H146.37V4.2H144.662V8.204H140.182V4.2H138.46V14H140.182V9.814H144.662V14ZM150.595 14L155.733 7.042V14H157.455V4.2H155.943L150.805 11.172V4.2H149.083V14H150.595ZM164.595 14H166.303V4.2C165.729 4.2 164.497 4.158 163.867 4.158C161.011 4.158 159.835 5.74 159.835 7.546C159.835 8.904 160.647 9.8 161.557 10.262L159.051 14H160.983L163.181 10.612H164.595V14ZM163.027 9.002C162.327 8.862 161.655 8.316 161.655 7.434C161.655 6.454 162.383 5.768 163.517 5.768C163.811 5.768 164.357 5.796 164.595 5.81V9.002H163.027ZM7.448 35H9.17V25.2H1.358V35H3.08V26.81H7.448V35ZM11.8853 35H17.6953V33.39H13.6073V30.856H17.1353V29.246H13.6073V26.81H17.5553V25.2H11.8853V35ZM21.6601 35V31.458C22.0801 31.5 22.6401 31.5 22.9341 31.5C25.2721 31.5 26.5181 29.988 26.5181 28.322C26.5181 26.712 25.6081 25.172 22.7241 25.172C22.0381 25.172 20.4841 25.2 19.9381 25.2V35H21.6601ZM22.8921 26.782C24.0681 26.782 24.6981 27.286 24.6981 28.308C24.6981 29.4 23.9001 29.89 22.8781 29.89C22.4861 29.89 22.0661 29.862 21.6601 29.82V26.81C22.1221 26.796 22.5421 26.782 22.8921 26.782ZM28.5103 35H34.3203V33.39H30.2323V30.856H33.7603V29.246H30.2323V26.81H34.1803V25.2H28.5103V35ZM35.3731 36.75H36.9831V35H43.8291V36.75H45.4391V33.39H44.1091V25.2H38.0331L37.9351 27.16C37.7671 30.814 36.8291 32.886 36.4231 33.39H35.3731V36.75ZM39.5451 28.518L39.6991 26.81H42.4011V33.39H38.3131C38.6631 32.956 39.3631 31.052 39.5451 28.518ZM45.8851 35H47.6211L48.6431 32.494H52.8291L53.8511 35H55.6851L51.5411 25.172H50.0291L45.8851 35ZM50.7431 27.398L52.1711 30.884H49.3011L50.7431 27.398ZM62.8179 25.2H61.0959V29.414C60.6059 29.75 59.9759 30.044 59.2199 30.044C58.2539 30.044 57.4979 29.596 57.4979 28.028V25.2H55.7759V28.518C55.7759 30.856 57.2739 31.654 58.7579 31.654C59.8079 31.654 60.6339 31.318 61.0959 30.982V35H62.8179V25.2ZM68.5006 34.986C69.0746 35.028 70.3346 35.056 71.2306 35.056C73.3026 35.056 74.8706 34.132 74.8706 32.116C74.8706 30.814 74.1146 30.072 73.1486 29.834V29.806C73.9886 29.414 74.5486 28.7 74.5486 27.58C74.5486 26.222 73.6666 25.158 71.3286 25.158C70.3486 25.158 69.0466 25.2 68.5006 25.228V34.986ZM71.4406 30.786C72.5186 30.786 73.1486 31.206 73.1486 32.032C73.1486 32.956 72.5186 33.446 71.3566 33.446C70.8666 33.446 70.4606 33.404 70.2226 33.376V30.786H71.4406ZM71.3006 26.768C72.2246 26.768 72.8406 27.188 72.8406 27.986C72.8406 28.882 72.1826 29.288 71.3846 29.288H70.2226V26.81C70.5306 26.782 70.9086 26.768 71.3006 26.768ZM77.1412 35H82.9512V33.39H78.8632V30.856H82.3912V29.246H78.8632V26.81H82.8112V25.2H77.1412V35ZM93.5659 35V25.2H91.9559V32.018L86.5659 25.2H85.1939V35H86.8039V28.21L92.1939 35H93.5659ZM95.0638 26.81H98.2418V35H99.9638V26.81H103.142V25.2H95.0638V26.81ZM104.635 35H110.767V33.39H106.357V25.2H104.635V35ZM112.292 35H118.102V33.39H114.014V30.856H117.542V29.246H114.014V26.81H117.962V25.2H112.292V35ZM127.722 25.2H125.86L123.452 29.302L121.016 25.2H119.056L122.514 30.912V35H124.236V30.912L127.722 25.2Z" fill="white"/>
</svg>
