<svg width="215" height="57" viewBox="0 0 215 57" fill="none" xmlns="http://www.w3.org/2000/svg">
<path d="M3.08 14V10.458C3.5 10.5 4.06 10.5 4.354 10.5C6.692 10.5 7.938 8.988 7.938 7.322C7.938 5.712 7.028 4.172 4.144 4.172C3.458 4.172 1.904 4.2 1.358 4.2V14H3.08ZM4.312 5.782C5.488 5.782 6.118 6.286 6.118 7.308C6.118 8.4 5.32 8.89 4.298 8.89C3.906 8.89 3.486 8.862 3.08 8.82V5.81C3.542 5.796 3.962 5.782 4.312 5.782ZM9.13391 9.1C9.13391 12.152 11.3179 14.154 14.2299 14.154C17.1419 14.154 19.3399 12.04 19.3399 9.1C19.3399 6.048 17.1419 4.046 14.2299 4.046C11.2199 4.046 9.13391 6.258 9.13391 9.1ZM10.9539 9.1C10.9539 7.07 12.3539 5.656 14.2299 5.656C16.0779 5.656 17.5199 7.07 17.5199 9.1C17.5199 11.032 16.2879 12.544 14.2299 12.544C12.3959 12.544 10.9539 11.06 10.9539 9.1ZM28.1366 11.76C27.4646 12.278 26.6386 12.544 25.8126 12.544C23.8106 12.544 22.4246 11.144 22.4246 9.1C22.4246 6.972 23.7966 5.656 25.6166 5.656C26.5966 5.656 27.2406 5.922 27.8286 6.314L28.5986 5.04C27.9546 4.452 26.8906 4.046 25.6166 4.046C22.3826 4.046 20.6046 6.286 20.6046 9.1C20.6046 12.152 22.6626 14.154 25.6586 14.154C26.9326 14.154 28.1786 13.706 28.7946 13.048L28.1366 11.76ZM30.5064 14H32.2284V8.946L36.2324 14H38.4164L34.1324 8.764L38.1644 4.2H36.0924L32.2284 8.848V4.2H30.5064V14ZM38.6378 9.1C38.6378 12.152 40.8218 14.154 43.7338 14.154C46.6458 14.154 48.8438 12.04 48.8438 9.1C48.8438 6.048 46.6458 4.046 43.7338 4.046C40.7238 4.046 38.6378 6.258 38.6378 9.1ZM40.4578 9.1C40.4578 7.07 41.8578 5.656 43.7338 5.656C45.5818 5.656 47.0238 7.07 47.0238 9.1C47.0238 11.032 45.7918 12.544 43.7338 12.544C41.8998 12.544 40.4578 11.06 40.4578 9.1ZM50.8365 14H62.0785V4.2H60.3565V12.39H57.3185V4.2H55.5965V12.39H52.5585V4.2H50.8365V14ZM70.9975 14H72.7055V4.2H70.9975V8.204H66.5175V4.2H64.7955V14H66.5175V9.814H70.9975V14ZM83.0905 14H84.7985V4.2H83.0905V14ZM78.0925 9.1C79.2965 9.1 79.9965 9.646 79.9965 10.696C79.9965 11.844 79.3245 12.418 78.0645 12.418C77.7285 12.418 77.4485 12.39 77.1405 12.376V9.17C77.5325 9.128 77.8265 9.1 78.0925 9.1ZM77.1405 4.2H75.4185V14C75.9925 14 76.9305 14.028 77.8545 14.028C80.3605 14.028 81.8165 12.726 81.8165 10.654C81.8165 8.736 80.6545 7.49 78.2325 7.49C77.9525 7.49 77.5745 7.504 77.1405 7.56V4.2ZM87.5182 14H93.3282V12.39H89.2402V9.856H92.7682V8.246H89.2402V5.81H93.1882V4.2H87.5182V14ZM105.342 11.76C104.67 12.278 103.844 12.544 103.018 12.544C101.016 12.544 99.6297 11.144 99.6297 9.1C99.6297 6.972 101.002 5.656 102.822 5.656C103.802 5.656 104.446 5.922 105.034 6.314L105.804 5.04C105.16 4.452 104.096 4.046 102.822 4.046C99.5877 4.046 97.8097 6.286 97.8097 9.1C97.8097 12.152 99.8677 14.154 102.864 14.154C104.138 14.154 105.384 13.706 106 13.048L105.342 11.76ZM109.224 14L114.362 7.042V14H116.084V4.2H114.572L109.434 11.172V4.2H107.712V14H109.224ZM117.609 15.75H119.219V14H126.065V15.75H127.675V12.39H126.345V4.2H120.269L120.171 6.16C120.003 9.814 119.065 11.886 118.659 12.39H117.609V15.75ZM121.781 7.518L121.935 5.81H124.637V12.39H120.549C120.899 11.956 121.599 10.052 121.781 7.518ZM129.381 14H135.191V12.39H131.103V9.856H134.631V8.246H131.103V5.81H135.051V4.2H129.381V14ZM143.636 14H145.344V4.2H143.636V8.204H139.156V4.2H137.434V14H139.156V9.814H143.636V14ZM150.759 9.1C151.963 9.1 152.775 9.59 152.775 10.696C152.775 11.9 151.991 12.418 150.731 12.418C150.395 12.418 150.087 12.39 149.779 12.376V9.17C150.171 9.128 150.507 9.1 150.759 9.1ZM149.779 4.2H148.057V14C148.631 14 149.597 14.028 150.535 14.028C153.139 14.028 154.595 12.726 154.595 10.654C154.595 8.736 153.433 7.49 150.899 7.49C150.633 7.49 150.213 7.504 149.779 7.56V4.2ZM161.012 14H162.72V4.2C162.146 4.2 160.914 4.158 160.284 4.158C157.428 4.158 156.252 5.74 156.252 7.546C156.252 8.904 157.064 9.8 157.974 10.262L155.468 14H157.4L159.598 10.612H161.012V14ZM159.444 9.002C158.744 8.862 158.072 8.316 158.072 7.434C158.072 6.454 158.8 5.768 159.934 5.768C160.228 5.768 160.774 5.796 161.012 5.81V9.002H159.444ZM164.734 13.104C164.734 13.622 165.084 14 165.448 14C165.56 14 165.728 14 165.812 13.888C165.868 14.028 165.812 14.266 165.686 14.532C165.49 14.966 165.182 15.148 164.832 15.274L165.266 16.03C166.372 15.708 167.044 14.84 167.044 13.65C167.044 12.74 166.568 12.082 165.812 12.082C165.112 12.082 164.734 12.516 164.734 13.104ZM2.87 35L8.008 28.042V35H9.73V25.2H8.218L3.08 32.172V25.2H1.358V35H2.87ZM14.9379 35.154C16.7159 35.154 18.3679 34.062 18.3679 32.256C18.3679 31.136 17.8499 30.226 16.6739 29.932V29.89C17.5839 29.358 17.9899 28.49 17.9899 27.734C17.9899 25.998 16.7719 25.046 15.0499 25.046C13.7059 25.046 12.5159 25.676 11.8719 26.572L12.8659 27.72C13.4119 26.992 14.0419 26.656 14.8539 26.656C15.6659 26.656 16.2819 27.062 16.2819 27.902C16.2819 28.714 15.5959 29.19 14.8679 29.19H13.9159V30.8H14.9239C16.0719 30.8 16.6599 31.318 16.6599 32.088C16.6599 33.096 15.7919 33.544 14.8539 33.544C14.0559 33.544 13.1179 33.026 12.5159 32.34L11.5779 33.502C12.0959 34.286 13.2019 35.154 14.9379 35.154ZM20.6353 35H22.3573V26.81H26.1653V25.2H20.6353V35ZM26.6339 30.1C26.6339 33.152 28.8179 35.154 31.7299 35.154C34.6419 35.154 36.8399 33.04 36.8399 30.1C36.8399 27.048 34.6419 25.046 31.7299 25.046C28.7199 25.046 26.6339 27.258 26.6339 30.1ZM28.4539 30.1C28.4539 28.07 29.8539 26.656 31.7299 26.656C33.5779 26.656 35.0199 28.07 35.0199 30.1C35.0199 32.032 33.7879 33.544 31.7299 33.544C29.8959 33.544 28.4539 32.06 28.4539 30.1ZM37.1634 26.81H40.3414V35H42.0634V26.81H45.2414V25.2H37.1634V26.81ZM45.5558 30.1C45.5558 33.152 47.7398 35.154 50.6518 35.154C53.5638 35.154 55.7618 33.04 55.7618 30.1C55.7618 27.048 53.5638 25.046 50.6518 25.046C47.6418 25.046 45.5558 27.258 45.5558 30.1ZM47.3758 30.1C47.3758 28.07 48.7758 26.656 50.6518 26.656C52.4998 26.656 53.9418 28.07 53.9418 30.1C53.9418 32.032 52.7098 33.544 50.6518 33.544C48.8178 33.544 47.3758 32.06 47.3758 30.1ZM57.7545 34.986C58.3285 35.028 59.5885 35.056 60.4845 35.056C62.5565 35.056 64.1245 34.132 64.1245 32.116C64.1245 30.814 63.3685 30.072 62.4025 29.834V29.806C63.2425 29.414 63.8025 28.7 63.8025 27.58C63.8025 26.222 62.9205 25.158 60.5825 25.158C59.6025 25.158 58.3005 25.2 57.7545 25.228V34.986ZM60.6945 30.786C61.7725 30.786 62.4025 31.206 62.4025 32.032C62.4025 32.956 61.7725 33.446 60.6105 33.446C60.1205 33.446 59.7145 33.404 59.4765 33.376V30.786H60.6945ZM60.5545 26.768C61.4785 26.768 62.0945 27.188 62.0945 27.986C62.0945 28.882 61.4365 29.288 60.6385 29.288H59.4765V26.81C59.7845 26.782 60.1625 26.768 60.5545 26.768ZM72.1771 35H73.8851V25.2H67.7111L67.5711 27.16C67.1371 33.068 66.1431 33.39 65.3871 33.292L65.3451 35C67.2771 35.28 68.5511 34.356 69.1251 28.658L69.3211 26.81H72.1771V35ZM76.5943 35H82.4043V33.39H78.3163V30.856H81.8443V29.246H78.3163V26.81H82.2643V25.2H76.5943V35ZM90.8491 35H92.5571V25.2H90.8491V29.204H86.3691V25.2H84.6471V35H86.3691V30.814H90.8491V35ZM101.472 35H103.18V25.2H101.472V29.204H96.9921V25.2H95.2701V35H96.9921V30.814H101.472V35ZM113.565 35H115.273V25.2H113.565V35ZM108.567 30.1C109.771 30.1 110.471 30.646 110.471 31.696C110.471 32.844 109.799 33.418 108.539 33.418C108.203 33.418 107.923 33.39 107.615 33.376V30.17C108.007 30.128 108.301 30.1 108.567 30.1ZM107.615 25.2H105.893V35C106.467 35 107.405 35.028 108.329 35.028C110.835 35.028 112.291 33.726 112.291 31.654C112.291 29.736 111.129 28.49 108.707 28.49C108.427 28.49 108.049 28.504 107.615 28.56V25.2ZM117.993 35H123.803V33.39H119.715V30.856H123.243V29.246H119.715V26.81H123.663V25.2H117.993V35ZM129.012 34.986C129.586 35.028 130.846 35.056 131.742 35.056C133.814 35.056 135.382 34.132 135.382 32.116C135.382 30.814 134.626 30.072 133.66 29.834V29.806C134.5 29.414 135.06 28.7 135.06 27.58C135.06 26.222 134.178 25.158 131.84 25.158C130.86 25.158 129.558 25.2 129.012 25.228V34.986ZM131.952 30.786C133.03 30.786 133.66 31.206 133.66 32.032C133.66 32.956 133.03 33.446 131.868 33.446C131.378 33.446 130.972 33.404 130.734 33.376V30.786H131.952ZM131.812 26.768C132.736 26.768 133.352 27.188 133.352 27.986C133.352 28.882 132.694 29.288 131.896 29.288H130.734V26.81C131.042 26.782 131.42 26.768 131.812 26.768ZM139.375 35V31.458C139.795 31.5 140.355 31.5 140.649 31.5C142.987 31.5 144.233 29.988 144.233 28.322C144.233 26.712 143.323 25.172 140.439 25.172C139.753 25.172 138.199 25.2 137.653 25.2V35H139.375ZM140.607 26.782C141.783 26.782 142.413 27.286 142.413 28.308C142.413 29.4 141.615 29.89 140.593 29.89C140.201 29.89 139.781 29.862 139.375 29.82V26.81C139.837 26.796 140.257 26.782 140.607 26.782ZM153.755 25.2H152.019L149.681 30.674L146.475 25.2H144.529L148.855 32.368L148.715 32.704C148.519 33.124 148.211 33.39 147.749 33.39C147.469 33.39 147.287 33.334 147.021 33.152L146.419 34.608C146.685 34.818 147.259 35 147.763 35C148.981 35 149.751 34.216 150.423 32.718L153.755 25.2ZM161.652 25.2H159.93V29.414C159.44 29.75 158.81 30.044 158.054 30.044C157.088 30.044 156.332 29.596 156.332 28.028V25.2H154.61V28.518C154.61 30.856 156.108 31.654 157.592 31.654C158.642 31.654 159.468 31.318 159.93 30.982V35H161.652V25.2ZM170.57 35H172.278V25.2H170.57V29.204H166.09V25.2H164.368V35H166.09V30.814H170.57V35ZM183.027 25.2H181.291L178.953 30.674L175.747 25.2H173.801L178.127 32.368L177.987 32.704C177.791 33.124 177.483 33.39 177.021 33.39C176.741 33.39 176.559 33.334 176.293 33.152L175.691 34.608C175.957 34.818 176.531 35 177.035 35C178.253 35 179.023 34.216 179.695 32.718L183.027 25.2ZM184.547 35H186.269V30.814H187.907C188.215 33.46 190.231 35.154 192.723 35.154C195.635 35.154 197.693 33.04 197.693 30.1C197.693 27.048 195.635 25.046 192.723 25.046C190.119 25.046 188.299 26.81 187.935 29.204H186.269V25.2H184.547V35ZM189.685 30.1C189.685 28.07 191.015 26.656 192.779 26.656C194.627 26.656 195.873 28.07 195.873 30.1C195.873 32.032 194.837 33.544 192.779 33.544C191.057 33.544 189.685 32.06 189.685 30.1ZM2.87 56L8.008 49.042V56H9.73V46.2H8.218L3.08 53.172V46.2H1.358V56H2.87ZM14.9379 56.154C16.7159 56.154 18.3679 55.062 18.3679 53.256C18.3679 52.136 17.8499 51.226 16.6739 50.932V50.89C17.5839 50.358 17.9899 49.49 17.9899 48.734C17.9899 46.998 16.7719 46.046 15.0499 46.046C13.7059 46.046 12.5159 46.676 11.8719 47.572L12.8659 48.72C13.4119 47.992 14.0419 47.656 14.8539 47.656C15.6659 47.656 16.2819 48.062 16.2819 48.902C16.2819 49.714 15.5959 50.19 14.8679 50.19H13.9159V51.8H14.9239C16.0719 51.8 16.6599 52.318 16.6599 53.088C16.6599 54.096 15.7919 54.544 14.8539 54.544C14.0559 54.544 13.1179 54.026 12.5159 53.34L11.5779 54.502C12.0959 55.286 13.2019 56.154 14.9379 56.154ZM23.6021 56H25.3241V50.946L29.3281 56H31.5121L27.2281 50.764L31.2601 46.2H29.1881L25.3241 50.848V46.2H23.6021V56ZM31.7335 51.1C31.7335 54.152 33.9175 56.154 36.8295 56.154C39.7415 56.154 41.9395 54.04 41.9395 51.1C41.9395 48.048 39.7415 46.046 36.8295 46.046C33.8195 46.046 31.7335 48.258 31.7335 51.1ZM33.5535 51.1C33.5535 49.07 34.9535 47.656 36.8295 47.656C38.6775 47.656 40.1195 49.07 40.1195 51.1C40.1195 53.032 38.8875 54.544 36.8295 54.544C34.9955 54.544 33.5535 53.06 33.5535 51.1ZM46.0033 50.89L42.1673 56H44.1413L47.8513 50.918V56H49.5593V50.918L53.2553 56H55.2433L51.4073 50.876L55.0893 46.2H53.1013L49.5593 50.876V46.2H47.8513V50.876L44.2953 46.2H42.3213L46.0033 50.89ZM58.2548 56L63.3928 49.042V56H65.1148V46.2H63.6028L58.4648 53.172V46.2H56.7428V56H58.2548ZM70.7975 56H72.5195V52.192H75.9775V50.582H72.5195V47.81H76.3975V46.2H70.7975V56ZM78.527 56H80.249V46.2H78.527V56ZM91.5425 56V46.2H89.9325V53.018L84.5425 46.2H83.1705V56H84.7805V49.21L90.1705 56H91.5425ZM94.2584 56H100.068V54.39H95.9804V51.856H99.5084V50.246H95.9804V47.81H99.9284V46.2H94.2584V56ZM113.65 56V46.2H112.04V53.018L106.65 46.2H105.278V56H106.888V49.21L112.278 56H113.65ZM115.106 56H116.842L117.864 53.494H122.05L123.072 56H124.906L120.762 46.172H119.25L115.106 56ZM119.964 48.398L121.392 51.884H118.522L119.964 48.398ZM128.096 56V52.458C128.516 52.5 129.076 52.5 129.37 52.5C131.708 52.5 132.954 50.988 132.954 49.322C132.954 47.712 132.044 46.172 129.16 46.172C128.474 46.172 126.92 46.2 126.374 46.2V56H128.096ZM129.328 47.782C130.504 47.782 131.134 48.286 131.134 49.308C131.134 50.4 130.336 50.89 129.314 50.89C128.922 50.89 128.502 50.862 128.096 50.82V47.81C128.558 47.796 128.978 47.782 129.328 47.782ZM136.668 56V52.458C137.088 52.5 137.648 52.5 137.942 52.5C140.28 52.5 141.526 50.988 141.526 49.322C141.526 47.712 140.616 46.172 137.732 46.172C137.046 46.172 135.492 46.2 134.946 46.2V56H136.668ZM137.9 47.782C139.076 47.782 139.706 48.286 139.706 49.308C139.706 50.4 138.908 50.89 137.886 50.89C137.494 50.89 137.074 50.862 136.668 50.82V47.81C137.13 47.796 137.55 47.782 137.9 47.782ZM141.356 56H143.092L144.114 53.494H148.3L149.322 56H151.156L147.012 46.172H145.5L141.356 56ZM146.214 48.398L147.642 51.884H144.772L146.214 48.398Z" fill="white"/>
</svg>
