<svg width="273" height="75" viewBox="0 0 273 75" fill="none" xmlns="http://www.w3.org/2000/svg">
<path d="M6.56 10H8.268V0.199999H6.56V4.204H2.08V0.199999H0.358V10H2.08V5.814H6.56V10ZM10.981 10H16.791V8.39H12.703V5.856H16.231V4.246H12.703V1.81H16.651V0.199999H10.981V10ZM25.1238 10H26.8458V0.199999H19.0338V10H20.7558V1.81H25.1238V10ZM31.2831 10V6.458C31.7031 6.5 32.2631 6.5 32.5571 6.5C34.8951 6.5 36.1411 4.988 36.1411 3.322C36.1411 1.712 35.2311 0.172 32.3471 0.172C31.6611 0.172 30.1071 0.199999 29.5611 0.199999V10H31.2831ZM32.5151 1.782C33.6911 1.782 34.3211 2.286 34.3211 3.308C34.3211 4.4 33.5231 4.89 32.5011 4.89C32.1091 4.89 31.6891 4.862 31.2831 4.82V1.81C31.7451 1.796 32.1651 1.782 32.5151 1.782ZM38.1334 10H43.9434V8.39H39.8554V5.856H43.3834V4.246H39.8554V1.81H43.8034V0.199999H38.1334V10ZM47.9081 10V6.458C48.3281 6.5 48.8881 6.5 49.1821 6.5C51.5201 6.5 52.7661 4.988 52.7661 3.322C52.7661 1.712 51.8561 0.172 48.9721 0.172C48.2861 0.172 46.7321 0.199999 46.1861 0.199999V10H47.9081ZM49.1401 1.782C50.3161 1.782 50.9461 2.286 50.9461 3.308C50.9461 4.4 50.1481 4.89 49.1261 4.89C48.7341 4.89 48.3141 4.862 47.9081 4.82V1.81C48.3701 1.796 48.7901 1.782 49.1401 1.782ZM62.4304 10H64.1384V0.199999H62.4304V10ZM57.4324 5.1C58.6364 5.1 59.3364 5.646 59.3364 6.696C59.3364 7.844 58.6644 8.418 57.4044 8.418C57.0684 8.418 56.7884 8.39 56.4804 8.376V5.17C56.8724 5.128 57.1664 5.1 57.4324 5.1ZM56.4804 0.199999H54.7584V10C55.3324 10 56.2704 10.028 57.1944 10.028C59.7004 10.028 61.1564 8.726 61.1564 6.654C61.1564 4.736 59.9944 3.49 57.5724 3.49C57.2924 3.49 56.9144 3.504 56.4804 3.56V0.199999ZM66.858 9.986C67.432 10.028 68.692 10.056 69.588 10.056C71.66 10.056 73.228 9.132 73.228 7.116C73.228 5.814 72.472 5.072 71.506 4.834V4.806C72.346 4.414 72.906 3.7 72.906 2.58C72.906 1.222 72.024 0.158 69.686 0.158C68.706 0.158 67.404 0.199999 66.858 0.228V9.986ZM69.798 5.786C70.876 5.786 71.506 6.206 71.506 7.032C71.506 7.956 70.876 8.446 69.714 8.446C69.224 8.446 68.818 8.404 68.58 8.376V5.786H69.798ZM69.658 1.768C70.582 1.768 71.198 2.188 71.198 2.986C71.198 3.882 70.54 4.288 69.742 4.288H68.58V1.81C68.888 1.782 69.266 1.768 69.658 1.768ZM81.7006 10H83.4086V0.199999H81.7006V4.204H77.2206V0.199999H75.4986V10H77.2206V5.814H81.7006V10ZM85.3937 5.1C85.3937 8.152 87.5777 10.154 90.4897 10.154C93.4017 10.154 95.5997 8.04 95.5997 5.1C95.5997 2.048 93.4017 0.0459996 90.4897 0.0459996C87.4797 0.0459996 85.3937 2.258 85.3937 5.1ZM87.2137 5.1C87.2137 3.07 88.6137 1.656 90.4897 1.656C92.3377 1.656 93.7797 3.07 93.7797 5.1C93.7797 7.032 92.5477 8.544 90.4897 8.544C88.6557 8.544 87.2137 7.06 87.2137 5.1ZM97.5924 10H103.402V8.39H99.3144V5.856H102.842V4.246H99.3144V1.81H103.262V0.199999H97.5924V10ZM108.612 10H110.334V4.946L114.338 10H116.522L112.238 4.764L116.27 0.199999H114.198L110.334 4.848V0.199999H108.612V10ZM116.743 5.1C116.743 8.152 118.927 10.154 121.839 10.154C124.751 10.154 126.949 8.04 126.949 5.1C126.949 2.048 124.751 0.0459996 121.839 0.0459996C118.829 0.0459996 116.743 2.258 116.743 5.1ZM118.563 5.1C118.563 3.07 119.963 1.656 121.839 1.656C123.687 1.656 125.129 3.07 125.129 5.1C125.129 7.032 123.897 8.544 121.839 8.544C120.005 8.544 118.563 7.06 118.563 5.1ZM134.396 10H136.104V0.199999H129.93L129.79 2.16C129.356 8.068 128.362 8.39 127.606 8.292L127.564 10C129.496 10.28 130.77 9.356 131.344 3.658L131.54 1.81H134.396V10ZM141.515 5.1C142.719 5.1 143.531 5.59 143.531 6.696C143.531 7.9 142.747 8.418 141.487 8.418C141.151 8.418 140.843 8.39 140.535 8.376V5.17C140.927 5.128 141.263 5.1 141.515 5.1ZM140.535 0.199999H138.813V10C139.387 10 140.353 10.028 141.291 10.028C143.895 10.028 145.351 8.726 145.351 6.654C145.351 4.736 144.189 3.49 141.655 3.49C141.389 3.49 140.969 3.504 140.535 3.56V0.199999ZM147.344 10H154.806V11.75H156.416V8.39H155.086V0.199999H153.364V8.39H149.066V0.199999H147.344V10ZM157.198 5.1C157.198 8.152 159.382 10.154 162.294 10.154C165.206 10.154 167.404 8.04 167.404 5.1C167.404 2.048 165.206 0.0459996 162.294 0.0459996C159.284 0.0459996 157.198 2.258 157.198 5.1ZM159.018 5.1C159.018 3.07 160.418 1.656 162.294 1.656C164.142 1.656 165.584 3.07 165.584 5.1C165.584 7.032 164.352 8.544 162.294 8.544C160.46 8.544 159.018 7.06 159.018 5.1ZM172.364 10H174.086V1.81H177.894V0.199999H172.364V10ZM184.38 10H186.088V0.199999H179.914L179.774 2.16C179.34 8.068 178.346 8.39 177.59 8.292L177.548 10C179.48 10.28 180.754 9.356 181.328 3.658L181.524 1.81H184.38V10ZM187.537 10H189.273L190.295 7.494H194.481L195.503 10H197.337L193.193 0.172H191.681L187.537 10ZM192.395 2.398L193.823 5.884H190.953L192.395 2.398ZM197.561 11.75H199.171V10H206.017V11.75H207.627V8.39H206.297V0.199999H200.221L200.123 2.16C199.955 5.814 199.017 7.886 198.611 8.39H197.561V11.75ZM201.733 3.518L201.887 1.81H204.589V8.39H200.501C200.851 7.956 201.551 6.052 201.733 3.518ZM209.333 10H211.055V4.946L215.059 10H217.243L212.959 4.764L216.991 0.199999H214.919L211.055 4.848V0.199999H209.333V10ZM217.464 5.1C217.464 8.152 219.648 10.154 222.56 10.154C225.472 10.154 227.67 8.04 227.67 5.1C227.67 2.048 225.472 0.0459996 222.56 0.0459996C219.55 0.0459996 217.464 2.258 217.464 5.1ZM219.284 5.1C219.284 3.07 220.684 1.656 222.56 1.656C224.408 1.656 225.85 3.07 225.85 5.1C225.85 7.032 224.618 8.544 222.56 8.544C220.726 8.544 219.284 7.06 219.284 5.1ZM229.663 10H231.385V1.81H235.193V0.199999H229.663V10ZM235.661 5.1C235.661 8.152 237.845 10.154 240.757 10.154C243.669 10.154 245.867 8.04 245.867 5.1C245.867 2.048 243.669 0.0459996 240.757 0.0459996C237.747 0.0459996 235.661 2.258 235.661 5.1ZM237.481 5.1C237.481 3.07 238.881 1.656 240.757 1.656C242.605 1.656 244.047 3.07 244.047 5.1C244.047 7.032 242.815 8.544 240.757 8.544C238.923 8.544 237.481 7.06 237.481 5.1ZM0.358 31H11.6V21.2H9.878V29.39H6.84V21.2H5.118V29.39H2.08V21.2H0.358V31ZM20.407 31H22.129V21.2H14.317V31H16.039V22.81H20.407V31ZM24.1163 26.1C24.1163 29.152 26.3003 31.154 29.2123 31.154C32.1243 31.154 34.3223 29.04 34.3223 26.1C34.3223 23.048 32.1243 21.046 29.2123 21.046C26.2023 21.046 24.1163 23.258 24.1163 26.1ZM25.9363 26.1C25.9363 24.07 27.3363 22.656 29.2123 22.656C31.0603 22.656 32.5023 24.07 32.5023 26.1C32.5023 28.032 31.2703 29.544 29.2123 29.544C27.3783 29.544 25.9363 28.06 25.9363 26.1ZM42.517 31H44.225V21.2H42.517V25.204H38.037V21.2H36.315V31H38.037V26.814H42.517V31ZM45.6781 31H47.4141L48.4361 28.494H52.6221L53.6441 31H55.4781L51.3341 21.172H49.8221L45.6781 31ZM50.5361 23.398L51.9641 26.884H49.0941L50.5361 23.398ZM56.6971 30.104C56.6971 30.622 57.0471 31 57.4111 31C57.5231 31 57.6911 31 57.7751 30.888C57.8311 31.028 57.7751 31.266 57.6491 31.532C57.4531 31.966 57.1451 32.148 56.7951 32.274L57.2291 33.03C58.3351 32.708 59.0071 31.84 59.0071 30.65C59.0071 29.74 58.5311 29.082 57.7751 29.082C57.0751 29.082 56.6971 29.516 56.6971 30.104ZM62.127 32.75H63.737V31H70.583V32.75H72.193V29.39H70.863V21.2H64.787L64.689 23.16C64.521 26.814 63.583 28.886 63.177 29.39H62.127V32.75ZM66.299 24.518L66.453 22.81H69.155V29.39H65.067C65.417 28.956 66.117 27.052 66.299 24.518ZM72.9796 26.1C72.9796 29.152 75.1636 31.154 78.0756 31.154C80.9876 31.154 83.1856 29.04 83.1856 26.1C83.1856 23.048 80.9876 21.046 78.0756 21.046C75.0656 21.046 72.9796 23.258 72.9796 26.1ZM74.7996 26.1C74.7996 24.07 76.1996 22.656 78.0756 22.656C79.9236 22.656 81.3656 24.07 81.3656 26.1C81.3656 28.032 80.1336 29.544 78.0756 29.544C76.2416 29.544 74.7996 28.06 74.7996 26.1ZM91.9823 28.76C91.3103 29.278 90.4843 29.544 89.6583 29.544C87.6563 29.544 86.2703 28.144 86.2703 26.1C86.2703 23.972 87.6423 22.656 89.4623 22.656C90.4423 22.656 91.0863 22.922 91.6743 23.314L92.4443 22.04C91.8003 21.452 90.7363 21.046 89.4623 21.046C86.2283 21.046 84.4503 23.286 84.4503 26.1C84.4503 29.152 86.5083 31.154 89.5043 31.154C90.7783 31.154 92.0243 30.706 92.6403 30.048L91.9823 28.76ZM93.1341 22.81H96.3121V31H98.0341V22.81H101.212V21.2H93.1341V22.81ZM110.742 21.2H109.006L106.668 26.674L103.462 21.2H101.516L105.842 28.368L105.702 28.704C105.506 29.124 105.198 29.39 104.736 29.39C104.456 29.39 104.274 29.334 104.008 29.152L103.406 30.608C103.672 30.818 104.246 31 104.75 31C105.968 31 106.738 30.216 107.41 28.718L110.742 21.2ZM118.352 31H120.074V21.2H112.262V31H113.984V22.81H118.352V31ZM128.992 31H130.7V21.2H128.992V25.204H124.512V21.2H122.79V31H124.512V26.814H128.992V31ZM132.685 26.1C132.685 29.152 134.869 31.154 137.781 31.154C140.693 31.154 142.891 29.04 142.891 26.1C142.891 23.048 140.693 21.046 137.781 21.046C134.771 21.046 132.685 23.258 132.685 26.1ZM134.505 26.1C134.505 24.07 135.905 22.656 137.781 22.656C139.629 22.656 141.071 24.07 141.071 26.1C141.071 28.032 139.839 29.544 137.781 29.544C135.947 29.544 134.505 28.06 134.505 26.1ZM144.883 31H150.693V29.39H146.605V26.856H150.133V25.246H146.605V22.81H150.553V21.2H144.883V31ZM155.903 30.986C156.477 31.028 157.737 31.056 158.633 31.056C160.705 31.056 162.273 30.132 162.273 28.116C162.273 26.814 161.517 26.072 160.551 25.834V25.806C161.391 25.414 161.951 24.7 161.951 23.58C161.951 22.222 161.069 21.158 158.731 21.158C157.751 21.158 156.449 21.2 155.903 21.228V30.986ZM158.843 26.786C159.921 26.786 160.551 27.206 160.551 28.032C160.551 28.956 159.921 29.446 158.759 29.446C158.269 29.446 157.863 29.404 157.625 29.376V26.786H158.843ZM158.703 22.768C159.627 22.768 160.243 23.188 160.243 23.986C160.243 24.882 159.585 25.288 158.787 25.288H157.625V22.81C157.933 22.782 158.311 22.768 158.703 22.768ZM166.782 26.1C166.782 29.152 168.966 31.154 171.878 31.154C174.79 31.154 176.988 29.04 176.988 26.1C176.988 23.048 174.79 21.046 171.878 21.046C168.868 21.046 166.782 23.258 166.782 26.1ZM168.602 26.1C168.602 24.07 170.002 22.656 171.878 22.656C173.726 22.656 175.168 24.07 175.168 26.1C175.168 28.032 173.936 29.544 171.878 29.544C170.044 29.544 168.602 28.06 168.602 26.1ZM177.422 32.75H179.032V31H185.878V32.75H187.488V29.39H186.158V21.2H180.082L179.984 23.16C179.816 26.814 178.878 28.886 178.472 29.39H177.422V32.75ZM181.594 24.518L181.748 22.81H184.45V29.39H180.362C180.712 28.956 181.412 27.052 181.594 24.518ZM195.396 31H197.104V21.2H195.396V25.204H190.916V21.2H189.194V31H190.916V26.814H195.396V31ZM199.089 26.1C199.089 29.152 201.273 31.154 204.185 31.154C207.097 31.154 209.295 29.04 209.295 26.1C209.295 23.048 207.097 21.046 204.185 21.046C201.175 21.046 199.089 23.258 199.089 26.1ZM200.909 26.1C200.909 24.07 202.309 22.656 204.185 22.656C206.033 22.656 207.475 24.07 207.475 26.1C207.475 28.032 206.243 29.544 204.185 29.544C202.351 29.544 200.909 28.06 200.909 26.1ZM209.619 22.81H212.797V31H214.519V22.81H217.697V21.2H209.619V22.81ZM218.011 26.1C218.011 29.152 220.195 31.154 223.107 31.154C226.019 31.154 228.217 29.04 228.217 26.1C228.217 23.048 226.019 21.046 223.107 21.046C220.097 21.046 218.011 23.258 218.011 26.1ZM219.831 26.1C219.831 24.07 221.231 22.656 223.107 22.656C224.955 22.656 226.397 24.07 226.397 26.1C226.397 28.032 225.165 29.544 223.107 29.544C221.273 29.544 219.831 28.06 219.831 26.1ZM236.412 31H238.12V21.2H236.412V25.204H231.932V21.2H230.21V31H231.932V26.814H236.412V31ZM247.035 31H248.743V21.2H247.035V25.204H242.555V21.2H240.833V31H242.555V26.814H247.035V31ZM250.728 26.1C250.728 29.152 252.912 31.154 255.824 31.154C258.736 31.154 260.934 29.04 260.934 26.1C260.934 23.048 258.736 21.046 255.824 21.046C252.814 21.046 250.728 23.258 250.728 26.1ZM252.548 26.1C252.548 24.07 253.948 22.656 255.824 22.656C257.672 22.656 259.114 24.07 259.114 26.1C259.114 28.032 257.882 29.544 255.824 29.544C253.99 29.544 252.548 28.06 252.548 26.1ZM262.926 31H264.648V23.958L267.77 28.27H268.022L271.116 23.916V31H272.824V21.2H271.2L268.008 25.778L264.662 21.2H262.926V31ZM1.87 52L7.008 45.042V52H8.73V42.2H7.218L2.08 49.172V42.2H0.358V52H1.87ZM18.2499 49.76C17.5779 50.278 16.7519 50.544 15.9259 50.544C13.9239 50.544 12.5379 49.144 12.5379 47.1C12.5379 44.972 13.9099 43.656 15.7299 43.656C16.7099 43.656 17.3539 43.922 17.9419 44.314L18.7119 43.04C18.0679 42.452 17.0039 42.046 15.7299 42.046C12.4959 42.046 10.7179 44.286 10.7179 47.1C10.7179 50.152 12.7759 52.154 15.7719 52.154C17.0459 52.154 18.2919 51.706 18.9079 51.048L18.2499 49.76ZM26.7097 52H28.4317V42.2H20.6197V52H22.3417V43.81H26.7097V52ZM30.4191 47.1C30.4191 50.152 32.6031 52.154 35.5151 52.154C38.4271 52.154 40.6251 50.04 40.6251 47.1C40.6251 44.048 38.4271 42.046 35.5151 42.046C32.5051 42.046 30.4191 44.258 30.4191 47.1ZM32.2391 47.1C32.2391 45.07 33.6391 43.656 35.5151 43.656C37.3631 43.656 38.8051 45.07 38.8051 47.1C38.8051 49.032 37.5731 50.544 35.5151 50.544C33.6811 50.544 32.2391 49.06 32.2391 47.1ZM48.0716 52H49.7796V42.2H43.6056L43.4656 44.16C43.0316 50.068 42.0376 50.39 41.2816 50.292L41.2396 52C43.1716 52.28 44.4456 51.356 45.0196 45.658L45.2156 43.81H48.0716V52ZM58.6909 52H60.3989V42.2H58.6909V46.204H54.2109V42.2H52.4889V52H54.2109V47.814H58.6909V52ZM63.1119 52H68.9219V50.39H64.8339V47.856H68.3619V46.246H64.8339V43.81H68.7819V42.2H63.1119V52ZM77.3666 52H79.0746V42.2H77.3666V46.204H72.8866V42.2H71.1646V52H72.8866V47.814H77.3666V52ZM83.2997 52L88.4377 45.042V52H90.1597V42.2H88.6477L83.5097 49.172V42.2H81.7877V52H83.2997ZM94.3876 52L99.5256 45.042V52H101.248V42.2H99.7356L94.5976 49.172V42.2H92.8756V52H94.3876ZM108.442 52L113.58 45.042V52H115.302V42.2H113.79L108.652 49.172V42.2H106.93V52H108.442ZM123.8 52H125.508V42.2H119.334L119.194 44.16C118.76 50.068 117.766 50.39 117.01 50.292L116.968 52C118.9 52.28 120.174 51.356 120.748 45.658L120.944 43.81H123.8V52ZM129.729 52L134.867 45.042V52H136.589V42.2H135.077L129.939 49.172V42.2H128.217V52H129.729ZM142.272 51.986C142.846 52.028 144.106 52.056 145.002 52.056C147.074 52.056 148.642 51.132 148.642 49.116C148.642 47.814 147.886 47.072 146.92 46.834V46.806C147.76 46.414 148.32 45.7 148.32 44.58C148.32 43.222 147.438 42.158 145.1 42.158C144.12 42.158 142.818 42.2 142.272 42.228V51.986ZM145.212 47.786C146.29 47.786 146.92 48.206 146.92 49.032C146.92 49.956 146.29 50.446 145.128 50.446C144.638 50.446 144.232 50.404 143.994 50.376V47.786H145.212ZM145.072 43.768C145.996 43.768 146.612 44.188 146.612 44.986C146.612 45.882 145.954 46.288 145.156 46.288H143.994V43.81C144.302 43.782 144.68 43.768 145.072 43.768ZM152.689 53.75H154.299V52H161.145V53.75H162.755V50.39H161.425V42.2H155.349L155.251 44.16C155.083 47.814 154.145 49.886 153.739 50.39H152.689V53.75ZM156.861 45.518L157.015 43.81H159.717V50.39H155.629C155.979 49.956 156.679 48.052 156.861 45.518ZM164.462 51.986C165.036 52.028 166.296 52.056 167.192 52.056C169.264 52.056 170.832 51.132 170.832 49.116C170.832 47.814 170.076 47.072 169.11 46.834V46.806C169.95 46.414 170.51 45.7 170.51 44.58C170.51 43.222 169.628 42.158 167.29 42.158C166.31 42.158 165.008 42.2 164.462 42.228V51.986ZM167.402 47.786C168.48 47.786 169.11 48.206 169.11 49.032C169.11 49.956 168.48 50.446 167.318 50.446C166.828 50.446 166.422 50.404 166.184 50.376V47.786H167.402ZM167.262 43.768C168.186 43.768 168.802 44.188 168.802 44.986C168.802 45.882 168.144 46.288 167.346 46.288H166.184V43.81C166.492 43.782 166.87 43.768 167.262 43.768ZM181.138 42.2H179.402L177.064 47.674L173.858 42.2H171.912L176.238 49.368L176.098 49.704C175.902 50.124 175.594 50.39 175.132 50.39C174.852 50.39 174.67 50.334 174.404 50.152L173.802 51.608C174.068 51.818 174.642 52 175.146 52C176.364 52 177.134 51.216 177.806 49.718L181.138 42.2ZM190.332 42.2H188.316L185.95 45.742L183.542 42.2H181.526L184.802 47.002L181.372 52H183.388L185.908 48.318L188.442 52H190.458L187.028 47.002L190.332 42.2ZM191.956 52H199.418V53.75H201.028V50.39H199.698V42.2H197.976V50.39H193.678V42.2H191.956V52ZM202.729 51.986C203.303 52.028 204.563 52.056 205.459 52.056C207.531 52.056 209.099 51.132 209.099 49.116C209.099 47.814 208.343 47.072 207.377 46.834V46.806C208.217 46.414 208.777 45.7 208.777 44.58C208.777 43.222 207.895 42.158 205.557 42.158C204.577 42.158 203.275 42.2 202.729 42.228V51.986ZM205.669 47.786C206.747 47.786 207.377 48.206 207.377 49.032C207.377 49.956 206.747 50.446 205.585 50.446C205.095 50.446 204.689 50.404 204.451 50.376V47.786H205.669ZM205.529 43.768C206.453 43.768 207.069 44.188 207.069 44.986C207.069 45.882 206.411 46.288 205.613 46.288H204.451V43.81C204.759 43.782 205.137 43.768 205.529 43.768ZM211.37 52H217.18V50.39H213.092V47.856H216.62V46.246H213.092V43.81H217.04V42.2H211.37V52ZM218.204 43.81H221.382V52H223.104V43.81H226.282V42.2H218.204V43.81ZM233.978 52H235.686V42.2H233.978V46.204H229.498V42.2H227.776V52H229.498V47.814H233.978V52ZM237.671 47.1C237.671 50.152 239.855 52.154 242.767 52.154C245.679 52.154 247.877 50.04 247.877 47.1C247.877 44.048 245.679 42.046 242.767 42.046C239.757 42.046 237.671 44.258 237.671 47.1ZM239.491 47.1C239.491 45.07 240.891 43.656 242.767 43.656C244.615 43.656 246.057 45.07 246.057 47.1C246.057 49.032 244.825 50.544 242.767 50.544C240.933 50.544 239.491 49.06 239.491 47.1ZM251.382 52L256.52 45.042V52H258.242V42.2H256.73L251.592 49.172V42.2H249.87V52H251.382ZM251.424 39.82C251.522 41.01 252.544 41.822 254.224 41.822C255.764 41.822 256.912 41.024 256.954 39.82H255.344C255.288 40.422 254.854 40.632 254.224 40.632C253.524 40.632 253.146 40.366 253.034 39.82H251.424ZM0.358 73H2.08V67.946L6.084 73H8.268L3.984 67.764L8.016 63.2H5.944L2.08 67.848V63.2H0.358V73ZM8.48938 68.1C8.48938 71.152 10.6734 73.154 13.5854 73.154C16.4974 73.154 18.6954 71.04 18.6954 68.1C18.6954 65.048 16.4974 63.046 13.5854 63.046C10.5754 63.046 8.48938 65.258 8.48938 68.1ZM10.3094 68.1C10.3094 66.07 11.7094 64.656 13.5854 64.656C15.4334 64.656 16.8754 66.07 16.8754 68.1C16.8754 70.032 15.6434 71.544 13.5854 71.544C11.7514 71.544 10.3094 70.06 10.3094 68.1ZM20.6881 73H22.4101V65.958L25.5321 70.27H25.7841L28.8781 65.916V73H30.5861V63.2H28.9621L25.7701 67.778L22.4241 63.2H20.6881V73ZM33.3072 73C33.8812 73 34.7212 73.056 35.8552 73.056C38.2632 73.056 39.6352 71.894 39.6352 69.864C39.6352 68.058 38.3892 66.91 36.3452 66.91C35.9952 66.91 35.4072 66.938 35.0292 66.994V64.81H39.0332V63.2H33.3072V73ZM36.2052 68.52C37.4092 68.52 37.9272 69.15 37.9272 69.99C37.9272 70.858 37.3952 71.446 36.1212 71.446C35.7572 71.446 35.4212 71.418 35.0292 71.39V68.604C35.4632 68.548 35.8832 68.52 36.2052 68.52ZM43.4188 73L48.5568 66.042V73H50.2788V63.2H48.7668L43.6288 70.172V63.2H41.9068V73H43.4188ZM59.1967 73H60.9047V63.2H59.1967V67.204H54.7167V63.2H52.9947V73H54.7167V68.814H59.1967V73ZM62.3578 73H64.0938L65.1158 70.494H69.3018L70.3238 73H72.1578L68.0138 63.172H66.5018L62.3578 73ZM67.2158 65.398L68.6438 68.884H65.7738L67.2158 65.398ZM73.6256 73H81.0876V74.75H82.6976V71.39H81.3676V63.2H79.6456V71.39H75.3476V63.2H73.6256V73ZM85.911 73L91.049 66.042V73H92.771V63.2H91.259L86.121 70.172V63.2H84.399V73H85.911ZM96.9989 73L102.137 66.042V73H103.859V63.2H102.347L97.2089 70.172V63.2H95.4869V73H96.9989ZM108.814 68.1C108.814 71.152 110.998 73.154 113.91 73.154C116.822 73.154 119.02 71.04 119.02 68.1C119.02 65.048 116.822 63.046 113.91 63.046C110.9 63.046 108.814 65.258 108.814 68.1ZM110.634 68.1C110.634 66.07 112.034 64.656 113.91 64.656C115.758 64.656 117.2 66.07 117.2 68.1C117.2 70.032 115.968 71.544 113.91 71.544C112.076 71.544 110.634 70.06 110.634 68.1ZM119.343 64.81H122.521V73H124.243V64.81H127.421V63.2H119.343V64.81ZM131.881 73H133.603V65.958L136.725 70.27H136.977L140.071 65.916V73H141.779V63.2H140.155L136.963 67.778L133.617 63.2H131.881V73ZM152.425 63.2H150.717V68.59C150.717 70.494 150.017 71.544 148.533 71.544C146.839 71.544 146.083 70.312 146.083 68.478V63.2H144.361V68.842C144.361 71.712 146.097 73.154 148.533 73.154C150.591 73.154 152.425 71.936 152.425 68.94V63.2ZM155.014 73H161.146V71.39H156.736V63.2H155.014V73ZM162.671 73H168.803V71.39H164.393V63.2H162.671V73ZM170.537 73H172.259V63.2H170.537V73ZM183.552 73V63.2H181.942V70.018L176.552 63.2H175.18V73H176.79V66.21L182.18 73H183.552ZM186.268 73H192.078V71.39H187.99V68.856H191.518V67.246H187.99V64.81H191.938V63.2H186.268V73ZM196.043 73V69.332H197.247L199.949 73H202.035L198.969 68.996C199.781 68.716 200.859 67.876 200.859 66.196C200.859 64.502 199.977 63.172 197.303 63.172C197.023 63.172 194.867 63.2 194.321 63.2V73H196.043ZM197.219 64.782C198.619 64.782 199.039 65.44 199.039 66.21C199.039 67.218 198.157 67.722 197.163 67.722H196.043V64.81C196.505 64.796 196.897 64.782 197.219 64.782Z" fill="white"/>
</svg>
