<svg width="21" height="21" viewBox="0 0 21 21" fill="none" xmlns="http://www.w3.org/2000/svg">
<path d="M13.776 11.8387C13.5203 11.5621 13.2331 11.3163 12.9202 11.1064C14.1817 10.1311 15.0659 8.74851 15.4219 7.19425C15.4486 7.08178 15.4528 6.96512 15.4342 6.85102C15.4156 6.73691 15.3745 6.62763 15.3135 6.52948C15.2524 6.43133 15.1724 6.34626 15.0783 6.27919C14.9841 6.21211 14.8776 6.16436 14.7649 6.1387C14.6521 6.11303 14.5354 6.10996 14.4215 6.12965C14.3076 6.14935 14.1987 6.19143 14.1012 6.25345C14.0036 6.31548 13.9193 6.39622 13.8531 6.49102C13.7869 6.58582 13.7402 6.69279 13.7156 6.80575C13.55 7.53292 13.2278 8.21521 12.7714 8.80504C12.315 9.39488 11.7354 9.87805 11.0731 10.2209V7.00175C11.0676 6.93748 11.0547 6.87406 11.0346 6.81275C11.0287 6.76209 11.0184 6.71204 11.004 6.66313C10.9667 6.5832 10.9174 6.50944 10.8579 6.44438C10.8421 6.42687 10.8342 6.40237 10.8176 6.38487C10.7535 6.32572 10.681 6.27647 10.6024 6.23875C10.5796 6.2265 10.563 6.20637 10.5394 6.19675C10.4725 6.17435 10.4032 6.15996 10.3329 6.15387C10.2894 6.1412 10.2449 6.13213 10.1999 6.12675L9.62763 6.125H9.625C9.42 6.12355 9.22107 6.19449 9.06324 6.32531C8.9054 6.45614 8.7988 6.63846 8.7622 6.84017C8.7256 7.04188 8.76136 7.25004 8.86317 7.42797C8.96498 7.60591 9.12631 7.74221 9.31875 7.81287V12.0916C7.93214 10.6524 7.01392 8.82691 6.685 6.85563C6.64625 6.62681 6.51818 6.42276 6.32898 6.28837C6.13978 6.15397 5.90494 6.10024 5.67613 6.139C5.44731 6.17775 5.24326 6.30582 5.10887 6.49502C4.97447 6.68422 4.92075 6.91906 4.9595 7.14787C5.47079 10.1953 7.17007 12.9154 9.6845 14.7114C9.72043 14.7327 9.75786 14.7514 9.7965 14.7674C9.82695 14.7851 9.85852 14.8009 9.891 14.8146C9.9885 14.8537 10.0923 14.8747 10.1973 14.8768C10.326 14.8752 10.4528 14.8447 10.5682 14.7875C10.577 14.7831 10.5866 14.7857 10.5954 14.7814C10.6727 14.7409 10.7435 14.689 10.8054 14.6274C10.8185 14.6151 10.8264 14.6011 10.8386 14.588C10.8951 14.526 10.9423 14.4562 10.9786 14.3806C10.9907 14.3558 11.0015 14.3304 11.011 14.3045C11.0494 14.2081 11.0702 14.1055 11.0723 14.0018V12.1415C11.6148 12.3005 12.1037 12.6046 12.4862 13.0209L13.9274 14.5932C14.0843 14.7643 14.3026 14.866 14.5345 14.876C14.7664 14.886 14.9927 14.8035 15.1637 14.6466C15.3348 14.4897 15.4365 14.2714 15.4465 14.0395C15.4565 13.8076 15.374 13.5813 15.2171 13.4102L13.776 11.8387ZM13.1889 0.875H7.81988C2.4325 0.875 0.875 2.43075 0.875 7.81112V13.1801C0.875 18.5675 2.43075 20.125 7.81112 20.125H13.1801C18.5675 20.125 20.125 18.5693 20.125 13.1889V7.81988C20.125 2.4325 18.5693 0.875 13.1889 0.875ZM18.375 13.1889C18.375 17.5989 17.598 18.375 13.1793 18.375H7.812C3.40113 18.375 2.625 17.598 2.625 13.1793V7.812C2.625 3.40113 3.402 2.625 7.82075 2.625H13.1889C17.5989 2.625 18.375 3.402 18.375 7.82075V13.1889Z" fill="#559566"/>
</svg>
