<svg width="179" height="14" viewBox="0 0 179 14" fill="none" xmlns="http://www.w3.org/2000/svg">
<path d="M0.358 13H2.08V7.946L6.084 13H8.268L3.984 7.764L8.016 3.2H5.944L2.08 7.848V3.2H0.358V13ZM8.48938 8.1C8.48938 11.152 10.6734 13.154 13.5854 13.154C16.4974 13.154 18.6954 11.04 18.6954 8.1C18.6954 5.048 16.4974 3.046 13.5854 3.046C10.5754 3.046 8.48938 5.258 8.48938 8.1ZM10.3094 8.1C10.3094 6.07 11.7094 4.656 13.5854 4.656C15.4334 4.656 16.8754 6.07 16.8754 8.1C16.8754 10.032 15.6434 11.544 13.5854 11.544C11.7514 11.544 10.3094 10.06 10.3094 8.1ZM22.7592 7.89L18.9232 13H20.8972L24.6072 7.918V13H26.3152V7.918L30.0112 13H31.9992L28.1632 7.876L31.8452 3.2H29.8572L26.3152 7.876V3.2H24.6072V7.876L21.0512 3.2H19.0772L22.7592 7.89ZM32.1566 13H33.8926L34.9146 10.494H39.1006L40.1226 13H41.9566L37.8126 3.172H36.3006L32.1566 13ZM37.0146 5.398L38.4426 8.884H35.5726L37.0146 5.398ZM49.6264 13H51.3344V3.2H49.6264V7.204H45.1464V3.2H43.4244V13H45.1464V8.814H49.6264V13ZM61.7195 13H63.4275V3.2H61.7195V13ZM56.7215 8.1C57.9255 8.1 58.6255 8.646 58.6255 9.696C58.6255 10.844 57.9535 11.418 56.6935 11.418C56.3575 11.418 56.0775 11.39 55.7695 11.376V8.17C56.1615 8.128 56.4555 8.1 56.7215 8.1ZM55.7695 3.2H54.0475V13C54.6215 13 55.5595 13.028 56.4835 13.028C58.9895 13.028 60.4455 11.726 60.4455 9.654C60.4455 7.736 59.2835 6.49 56.8615 6.49C56.5815 6.49 56.2035 6.504 55.7695 6.56V3.2ZM67.6591 13L72.7971 6.042V13H74.5191V3.2H73.0071L67.8691 10.172V3.2H66.1471V13H67.6591ZM67.7011 0.819999C67.7991 2.01 68.8211 2.822 70.5011 2.822C72.0411 2.822 73.1891 2.024 73.2311 0.819999H71.6211C71.5651 1.422 71.1311 1.632 70.5011 1.632C69.8011 1.632 69.4231 1.366 69.3111 0.819999H67.7011ZM81.9238 13V9.458C82.3438 9.5 82.9038 9.5 83.1978 9.5C85.5358 9.5 86.7818 7.988 86.7818 6.322C86.7818 4.712 85.8718 3.172 82.9878 3.172C82.3018 3.172 80.7478 3.2 80.2018 3.2V13H81.9238ZM83.1558 4.782C84.3318 4.782 84.9618 5.286 84.9618 6.308C84.9618 7.4 84.1638 7.89 83.1418 7.89C82.7498 7.89 82.3298 7.862 81.9238 7.82V4.81C82.3858 4.796 82.8058 4.782 83.1558 4.782ZM96.3042 3.2H94.5682L92.2302 8.674L89.0242 3.2H87.0782L91.4042 10.368L91.2642 10.704C91.0682 11.124 90.7602 11.39 90.2982 11.39C90.0182 11.39 89.8362 11.334 89.5702 11.152L88.9682 12.608C89.2342 12.818 89.8082 13 90.3122 13C91.5302 13 92.3002 12.216 92.9722 10.718L96.3042 3.2ZM102.937 13H104.645V3.2H98.4709L98.3309 5.16C97.8969 11.068 96.9029 11.39 96.1469 11.292L96.1049 13C98.0369 13.28 99.3109 12.356 99.8849 6.658L100.081 4.81H102.937V13ZM110.056 8.1C111.26 8.1 112.072 8.59 112.072 9.696C112.072 10.9 111.288 11.418 110.028 11.418C109.692 11.418 109.384 11.39 109.076 11.376V8.17C109.468 8.128 109.804 8.1 110.056 8.1ZM109.076 3.2H107.354V13C107.928 13 108.894 13.028 109.832 13.028C112.436 13.028 113.892 11.726 113.892 9.654C113.892 7.736 112.73 6.49 110.196 6.49C109.93 6.49 109.51 6.504 109.076 6.56V3.2ZM118.852 12.986C119.426 13.028 120.686 13.056 121.582 13.056C123.654 13.056 125.222 12.132 125.222 10.116C125.222 8.814 124.466 8.072 123.5 7.834V7.806C124.34 7.414 124.9 6.7 124.9 5.58C124.9 4.222 124.018 3.158 121.68 3.158C120.7 3.158 119.398 3.2 118.852 3.228V12.986ZM121.792 8.786C122.87 8.786 123.5 9.206 123.5 10.032C123.5 10.956 122.87 11.446 121.708 11.446C121.218 11.446 120.812 11.404 120.574 11.376V8.786H121.792ZM121.652 4.768C122.576 4.768 123.192 5.188 123.192 5.986C123.192 6.882 122.534 7.288 121.736 7.288H120.574V4.81C120.882 4.782 121.26 4.768 121.652 4.768ZM127.493 13H133.303V11.39H129.215V8.856H132.743V7.246H129.215V4.81H133.163V3.2H127.493V13ZM143.918 13V3.2H142.308V10.018L136.918 3.2H135.546V13H137.156V6.21L142.546 13H143.918ZM145.415 4.81H148.593V13H150.315V4.81H153.493V3.2H145.415V4.81ZM154.987 13H161.119V11.39H156.709V3.2H154.987V13ZM162.643 13H168.453V11.39H164.365V8.856H167.893V7.246H164.365V4.81H168.313V3.2H162.643V13ZM178.074 3.2H176.212L173.804 7.302L171.368 3.2H169.408L172.866 8.912V13H174.588V8.912L178.074 3.2Z" fill="white"/>
</svg>
